<svg width="54" height="36" viewBox="0 0 54 36" fill="none" xmlns="http://www.w3.org/2000/svg">
<path d="M53.6737 16.7196C48.5896 6.96133 38.5246 0.359009 26.9999 0.359009C15.4753 0.359009 5.40745 6.96595 0.326199 16.7205C0.111738 17.1378 0 17.5989 0 18.0665C0 18.5341 0.111738 18.9952 0.326199 19.4125C5.41026 29.1707 15.4753 35.7731 26.9999 35.7731C38.5246 35.7731 48.5924 29.1661 53.6737 19.4116C53.8881 18.9943 53.9999 18.5332 53.9999 18.0656C53.9999 17.598 53.8881 17.1369 53.6737 16.7196ZM26.9999 31.3463C24.3299 31.3463 21.7198 30.5674 19.4997 29.1082C17.2797 27.6489 15.5494 25.5748 14.5276 23.1482C13.5058 20.7215 13.2384 18.0513 13.7593 15.4752C14.2802 12.8991 15.566 10.5327 17.454 8.67547C19.342 6.81819 21.7475 5.55337 24.3662 5.04094C26.985 4.52852 29.6994 4.79151 32.1662 5.79667C34.633 6.80182 36.7414 8.50399 38.2248 10.6879C39.7082 12.8718 40.4999 15.4395 40.4999 18.066C40.5008 19.8103 40.1522 21.5376 39.4741 23.1492C38.7959 24.7608 37.8016 26.2251 36.5478 27.4585C35.294 28.6919 33.8055 29.67 32.1672 30.3371C30.5289 31.0042 28.773 31.3472 26.9999 31.3463ZM26.9999 9.21252C26.1966 9.22357 25.3985 9.34114 24.6271 9.56205C25.263 10.4121 25.5681 11.4581 25.4872 12.5104C25.4062 13.5627 24.9446 14.5517 24.186 15.2979C23.4275 16.0442 22.4221 16.4983 21.3524 16.5779C20.2826 16.6575 19.2193 16.3573 18.3553 15.7318C17.8632 17.5151 17.952 19.4052 18.6092 21.1362C19.2664 22.8672 20.4588 24.3518 22.0186 25.3812C23.5785 26.4106 25.4272 26.9329 27.3046 26.8745C29.182 26.8162 30.9935 26.1802 32.4842 25.056C33.9749 23.9318 35.0697 22.3761 35.6145 20.6077C36.1593 18.8394 36.1266 16.9475 35.5212 15.1984C34.9157 13.4493 33.7679 11.931 32.2393 10.8572C30.7107 9.78338 28.8783 9.20817 26.9999 9.21252Z" fill="#F9BA32"/>
</svg>
