<svg width="210" height="43" viewBox="0 0 210 43" fill="none" xmlns="http://www.w3.org/2000/svg">
<path d="M77.1689 41.3223C77.6777 39.8207 83.7109 35.6018 90.689 31.955C94.8323 29.7384 98.7575 26.9496 101.447 24.2324L105.663 20.0136L102.028 21.3722C100.066 22.1588 96.8676 23.4459 94.9777 24.2324C93.0151 25.0905 91.2706 25.734 91.1252 25.734C90.3256 25.734 90.9798 24.0179 92.1428 23.0883C93.0878 22.3018 92.7243 22.3733 90.5437 23.2313C87.3454 24.4469 83.1294 24.6615 82.4752 23.5889C82.1845 23.1598 81.2395 23.3028 79.9311 23.9464C77.1689 25.3765 73.6072 25.305 72.8076 23.8749C72.2261 22.8738 71.8626 22.8738 68.3009 23.8749C63.4307 25.305 60.5232 25.305 59.7236 23.9464C59.2148 22.9453 58.7786 22.9453 56.0165 23.9464C52.4547 25.162 47.948 25.3765 47.948 24.3039C47.948 23.9464 46.4215 23.8034 44.2409 24.0894C41.7695 24.3754 40.3884 24.2324 40.0249 23.6604C39.5888 23.0168 38.9346 23.0883 37.4081 23.8749C36.2451 24.4469 33.1195 25.019 30.2119 25.019C27.3771 25.0905 23.9607 25.162 22.6523 25.2335C17.8548 25.305 18.2183 24.0179 24.9057 17.2964C28.3947 13.8641 31.2296 10.6463 31.2296 10.1458C31.2296 9.57374 30.2846 9.64525 27.9586 10.2888C23.7426 11.5759 19.6721 14.0071 13.9296 18.5835C7.7511 23.5174 7.02421 22.3733 13.0574 17.2964C20.2536 11.0754 29.4851 2.13715 28.6128 2.13715C28.2493 2.13715 21.78 5.71243 14.2931 10.0028C6.87883 14.3646 0.554905 17.8684 0.336839 17.8684C-1.11694 17.8684 2.00868 15.7232 12.1851 9.78826C25.2691 2.06564 27.8132 0.707031 29.4124 0.707031C31.3023 0.707031 30.6481 3.13823 27.8132 6.35599L25.1237 9.43073L27.6678 8.93019C35.2275 7.21405 35.1548 9.14471 27.5225 16.7958C24.2515 20.1566 21.7074 23.0883 21.9254 23.3028C22.2162 23.5174 25.4145 22.5163 29.1216 21.0862C36.3905 18.1544 40.9699 17.2249 41.6968 18.4405C41.9875 18.8695 42.6417 19.084 43.2232 18.798C44.6043 18.2974 44.6043 19.5846 43.2232 20.7286C42.6417 21.2292 42.1329 22.0873 42.1329 22.5878C42.1329 24.2324 45.622 23.0883 50.2741 19.9421C54.5627 17.0103 57.3976 16.3668 57.3976 18.2974C57.3976 19.084 56.9614 19.37 55.9438 19.084C54.9988 18.8695 53.6177 19.37 52.0913 20.5856C50.8556 21.5867 49.6199 22.5163 49.4745 22.5878C49.4018 22.7308 49.4745 23.0883 49.6925 23.5174C50.4194 24.59 60.1597 21.5867 63.4307 19.227C66.411 17.0818 70.1181 16.3668 69.6093 18.0829C69.3912 18.512 68.5916 18.941 67.7921 19.0125C66.2656 19.084 61.7589 22.0157 61.7589 23.0168C61.7589 24.59 69.682 22.6593 75.1336 19.8706C77.8231 18.4405 82.4752 17.9399 85.3828 18.798C86.1823 19.0125 86.9819 19.227 87.1273 19.227C87.3454 19.2985 86.6912 20.0851 85.8189 21.0147C84.9466 21.9442 84.5105 22.8738 84.8739 23.1598C85.8916 23.7319 90.9071 22.1588 91.2706 21.0862C91.7794 19.9421 98.7575 17.1534 101.156 17.1534C102.683 17.1534 102.683 17.1534 100.938 19.0125L99.1936 20.8717L101.011 20.3711C105.299 19.227 110.533 16.0808 116.639 11.0754C122.963 5.85545 125.362 4.42533 126.234 5.2834C127.033 5.99846 124.126 8.57266 117.366 13.292C110.17 18.2259 103.41 24.0894 104.136 24.733C104.355 24.9475 107.698 23.6604 111.623 21.8727C115.476 20.0851 118.965 18.5835 119.256 18.5835C120.855 18.5835 119.619 20.0136 116.566 21.8012C114.24 23.1598 113.441 23.9464 113.949 24.4469C115.185 25.6625 121.364 23.8034 122.963 21.8012C124.78 19.513 128.56 16.8673 129.214 17.4394C129.432 17.7254 128.705 18.655 127.542 19.5846C125.289 21.3722 124.489 23.5889 126.161 23.5889C127.833 23.5889 132.34 21.5867 134.884 19.6561C137.646 17.5824 138.082 17.5109 138.082 18.8695C138.082 19.37 137.283 20.3711 136.265 21.0147C133.648 22.7308 133.939 23.8749 136.919 23.3744C138.591 23.0883 142.007 20.8717 147.532 16.4383C155.455 10.1458 159.671 7.42857 160.325 8.07212C160.543 8.28664 158.653 9.85977 156.109 11.6474C153.565 13.4351 150.221 16.0808 148.622 17.5109L145.714 20.0136L149.131 19.5846C153.129 19.084 154.583 19.6561 153.274 21.2292C152.475 22.0873 152.693 22.1588 154.51 21.8012C160.616 20.4426 162.506 19.7276 164.904 18.2259C166.358 17.2249 168.321 16.3668 169.338 16.2953C170.937 16.0808 171.156 16.3668 171.374 18.512L171.592 20.9432L174.863 20.4426C178.933 19.9421 180.896 18.941 187.583 13.9356C194.343 8.93019 195.216 10.1458 188.892 15.7232L184.24 19.8706L187.511 19.227C191.945 18.4405 193.762 18.4405 192.962 19.227C192.526 19.5846 190.273 20.2281 187.947 20.6571C183.731 21.4437 183.44 21.5867 175.953 29.3093C169.048 36.3884 166.431 38.3906 166.431 36.6029C166.431 35.3158 170.356 30.811 176.026 25.591C181.55 20.5141 181.841 20.0851 179.297 21.1577C177.407 21.8727 175.444 22.0873 173.336 21.7297C170.429 21.3722 169.847 21.5152 167.376 23.5174C165.704 24.876 163.814 25.734 162.578 25.734C160.616 25.734 160.47 25.5195 160.761 23.5889C160.979 22.4448 160.906 21.4437 160.688 21.4437C160.398 21.4437 157.854 22.0873 154.946 22.8738C148.113 24.733 146.514 24.733 148.985 22.8738C151.602 20.9432 150.439 20.5141 145.933 21.8012C142.662 22.7308 140.554 24.1609 133.43 30.5964C122.381 40.3927 120.782 41.6083 119.765 41.3223C119.328 41.1793 123.108 37.318 128.124 32.8131L137.355 24.6615L134.302 24.1609C132.558 23.8034 130.232 23.9464 128.996 24.3039C127.76 24.6615 125.507 24.9475 123.908 24.9475C122.309 24.876 118.965 25.0905 116.494 25.3765C112.423 25.8771 111.914 25.8056 111.914 24.6615C111.914 23.8749 111.551 23.5889 110.897 23.8034C102.828 26.8781 98.3941 29.2378 93.3785 33.2421C85.0193 39.8207 76.224 44.254 77.1689 41.3223ZM85.1647 37.89C89.8168 34.8868 91.3432 32.8846 87.3454 35.1013C83.5655 37.2465 80.0038 39.9637 81.0941 40.0352C81.5303 40.0352 83.3475 39.0341 85.1647 37.89ZM39.08 21.1577C40.6064 19.6561 39.1527 19.2985 36.027 20.3711C33.1922 21.3722 31.7384 22.6593 32.3926 23.7319C32.8287 24.3754 37.6989 22.5163 39.08 21.1577ZM166.14 22.6593C167.303 21.6582 167.957 20.4426 167.812 19.6561C167.521 18.4405 167.23 18.5835 164.759 20.6571C163.305 21.9442 162.069 23.3028 162.069 23.6604C162.069 24.8045 164.177 24.3039 166.14 22.6593ZM79.9311 22.5163C82.8387 21.0147 82.9113 19.1555 80.0038 20.0136C77.0962 20.8001 74.8429 22.0873 74.8429 22.8738C74.8429 23.9464 77.5324 23.7319 79.9311 22.5163Z" fill="#F9BA32"/>
<path d="M182.858 36.5314C182.204 35.6018 188.528 28.3798 192.962 25.019C197.832 21.3007 198.705 19.6561 194.998 21.1577C190.2 23.1598 189.982 21.7297 194.779 19.513C197.396 18.3689 201.612 15.7232 204.156 13.6496C206.7 11.6474 209.026 10.0028 209.39 10.0028C210.844 10.0028 209.753 11.5044 205.537 15.3657L201.031 19.513L205.247 19.0125C210.844 18.2974 210.044 19.513 204.156 20.6571C199.795 21.5152 199.577 21.7297 192.09 29.3808C187.874 33.6712 184.167 37.175 183.803 37.175C183.513 37.175 183.077 36.8889 182.858 36.5314Z" fill="#F9BA32"/>
</svg>
