<svg width="24" height="15" viewBox="0 0 24 15" fill="none" xmlns="http://www.w3.org/2000/svg">
<path d="M22.8472 1.55772C23.0078 1.02719 22.8472 0.636719 22.0747 0.636719H19.5182C18.8672 0.636719 18.5677 0.972013 18.4071 1.34551C18.4071 1.34551 17.105 4.44804 15.2648 6.45981C14.6701 7.04127 14.3967 7.22801 14.0712 7.22801C13.9106 7.22801 13.6632 7.04127 13.6632 6.51074V1.55772C13.6632 0.921082 13.4809 0.636719 12.9427 0.636719H8.92361C8.51562 0.636719 8.27257 0.933815 8.27257 1.20969C8.27257 1.81237 9.19271 1.95243 9.28819 3.65012V7.33412C9.28819 8.14052 9.14062 8.28907 8.8151 8.28907C7.94705 8.28907 5.83767 5.1738 4.58767 1.60865C4.33594 0.916838 4.08854 0.636719 3.43316 0.636719H0.876736C0.147569 0.636719 0 0.972013 0 1.34551C0 2.00761 0.868056 5.29689 4.0408 9.64298C6.15451 12.6097 9.13194 14.2183 11.8403 14.2183C13.4679 14.2183 13.6675 13.8617 13.6675 13.2463C13.6675 10.4112 13.52 10.1438 14.3359 10.1438C14.7135 10.1438 15.3646 10.3305 16.8837 11.7609C18.6198 13.4585 18.9062 14.2183 19.8785 14.2183H22.4349C23.1641 14.2183 23.533 13.8617 23.3203 13.1572C22.8342 11.676 19.5486 8.62861 19.401 8.42488C19.0234 7.94953 19.1319 7.73732 19.401 7.3129C19.4054 7.30865 22.526 3.01349 22.8472 1.55772Z" fill="white"/>
</svg>
