<svg width="42" height="42" viewBox="0 0 42 42" fill="none" xmlns="http://www.w3.org/2000/svg">
<g clip-path="url(#clip0)">
<rect width="41.33" height="41.33" transform="translate(41.33 41.3301) rotate(-180)" fill="white"/>
<path fill-rule="evenodd" clip-rule="evenodd" d="M20.6633 38.3301C30.4204 38.3301 38.33 30.4204 38.33 20.6634C38.33 10.9064 30.4204 2.99674 20.6633 2.99674C10.9063 2.99674 2.99667 10.9064 2.99667 20.6634C2.99667 30.4204 10.9063 38.3301 20.6633 38.3301ZM41.33 20.6634C41.33 32.0773 32.0772 41.3301 20.6633 41.3301C9.24945 41.3301 -0.00333324 32.0773 -0.00333224 20.6634C-0.00333124 9.24952 9.24945 -0.00326056 20.6633 -0.00325956C32.0772 -0.00325856 41.33 9.24953 41.33 20.6634Z" fill="#303435"/>
<path fill-rule="evenodd" clip-rule="evenodd" d="M21.724 29.3907C21.1382 29.9765 20.1885 29.9765 19.6027 29.3907L11.936 21.7241C11.6547 21.4428 11.4967 21.0612 11.4967 20.6634C11.4967 20.2656 11.6547 19.8841 11.936 19.6027L19.6027 11.9361C20.1885 11.3503 21.1383 11.3503 21.724 11.9361C22.3098 12.5219 22.3098 13.4716 21.724 14.0574L15.118 20.6634L21.724 27.2694C22.3098 27.8552 22.3098 28.805 21.724 29.3907Z" fill="#303435"/>
<path fill-rule="evenodd" clip-rule="evenodd" d="M29.83 20.6633C29.83 21.4918 29.1584 22.1633 28.33 22.1633L12.9967 22.1633C12.1682 22.1633 11.4967 21.4918 11.4967 20.6634C11.4967 19.835 12.1682 19.1633 12.9967 19.1633L28.33 19.1633C29.1584 19.1633 29.83 19.8349 29.83 20.6633Z" fill="#303435"/>
</g>
<defs>
<clipPath id="clip0">
<rect width="41.33" height="41.33" fill="white" transform="translate(41.33 41.3301) rotate(-180)"/>
</clipPath>
</defs>
</svg>
