<svg width="42" height="42" viewBox="0 0 42 42" fill="none" xmlns="http://www.w3.org/2000/svg">
<g clip-path="url(#clip0)">
<rect width="41.33" height="41.33" fill="white"/>
<path fill-rule="evenodd" clip-rule="evenodd" d="M20.6667 3C10.9096 3 3 10.9096 3 20.6667C3 30.4237 10.9096 38.3333 20.6667 38.3333C30.4237 38.3333 38.3333 30.4237 38.3333 20.6667C38.3333 10.9096 30.4237 3 20.6667 3ZM0 20.6667C0 9.25278 9.25278 0 20.6667 0C32.0806 0 41.3333 9.25278 41.3333 20.6667C41.3333 32.0806 32.0806 41.3333 20.6667 41.3333C9.25278 41.3333 0 32.0806 0 20.6667Z" fill="#303435"/>
<path fill-rule="evenodd" clip-rule="evenodd" d="M19.606 11.9393C20.1918 11.3536 21.1415 11.3536 21.7273 11.9393L29.394 19.606C29.6753 19.8873 29.8333 20.2688 29.8333 20.6667C29.8333 21.0645 29.6753 21.446 29.394 21.7273L21.7273 29.394C21.1415 29.9798 20.1918 29.9798 19.606 29.394C19.0202 28.8082 19.0202 27.8585 19.606 27.2727L26.212 20.6667L19.606 14.0607C19.0202 13.4749 19.0202 12.5251 19.606 11.9393Z" fill="#303435"/>
<path fill-rule="evenodd" clip-rule="evenodd" d="M11.5 20.6667C11.5 19.8383 12.1716 19.1667 13 19.1667H28.3333C29.1618 19.1667 29.8333 19.8382 29.8333 20.6667C29.8333 21.4951 29.1618 22.1667 28.3333 22.1667H13C12.1716 22.1667 11.5 21.4952 11.5 20.6667Z" fill="#303435"/>
</g>
<defs>
<clipPath id="clip0">
<rect width="41.33" height="41.33" fill="white"/>
</clipPath>
</defs>
</svg>
