<svg width="16" height="16" viewBox="0 0 16 16" fill="none" xmlns="http://www.w3.org/2000/svg">
<g clip-path="url(#clip0)">
<path d="M11.1813 2.53118C10.5823 1.93357 9.77273 1.59679 8.92798 1.5938C8.08322 1.5908 7.2713 1.92183 6.66807 2.51518L1.35742 7.75059C1.20684 7.89934 1.00365 7.98217 0.792342 7.98097C0.581029 7.97977 0.378795 7.89464 0.2299 7.74419C0.156308 7.66976 0.0981112 7.58146 0.0586593 7.48438C0.0192073 7.38729 -0.000721157 7.28334 1.99351e-05 7.1785C0.000761027 7.07366 0.0221571 6.97001 0.0629775 6.87349C0.103798 6.77698 0.163237 6.68952 0.237874 6.61614L5.54694 1.38233C6.4502 0.492769 7.66645 -0.00387078 8.93215 2.27212e-05C10.1978 0.00391623 11.411 0.508029 12.3089 1.40313C12.7543 1.84731 13.1077 2.37546 13.3489 2.9572C13.5901 3.53895 13.7143 4.1628 13.7143 4.79287C13.7143 5.42294 13.5901 6.04679 13.3489 6.62853C13.1077 7.21028 12.7543 7.73843 12.3089 8.18261L5.40022 15.0853C4.81277 15.6712 4.01813 16 3.18983 16C2.36154 16 1.5669 15.6712 0.979452 15.0853C0.689318 14.7958 0.459079 14.4516 0.301971 14.0725C0.144863 13.6934 0.0639836 13.2869 0.0639836 12.8764C0.0639836 12.4659 0.144863 12.0594 0.301971 11.6803C0.459079 11.3012 0.689318 10.957 0.979452 10.6675L7.42241 4.23045C7.57208 4.08134 7.77445 3.99766 7.98537 3.99766C8.19629 3.99766 8.39866 4.08134 8.54833 4.23045C8.62221 4.30432 8.68082 4.3921 8.72081 4.48875C8.76081 4.5854 8.78139 4.68902 8.78139 4.79367C8.78139 4.89832 8.76081 5.00194 8.72081 5.09859C8.68082 5.19524 8.62221 5.28302 8.54833 5.35689L2.10697 11.794C1.96477 11.9358 1.85193 12.1045 1.77493 12.2902C1.69792 12.476 1.65828 12.6752 1.65828 12.8764C1.65828 13.0776 1.69792 13.2768 1.77493 13.4626C1.85193 13.6483 1.96477 13.817 2.10697 13.9588C2.39486 14.2469 2.78485 14.4086 3.19143 14.4086C3.59801 14.4086 3.98799 14.2469 4.27589 13.9588L11.1813 7.05616C11.4786 6.75966 11.7144 6.40713 11.8754 6.01885C12.0363 5.63057 12.1192 5.21419 12.1192 4.79367C12.1192 4.37315 12.0363 3.95677 11.8754 3.56849C11.7144 3.18021 11.4786 2.82768 11.1813 2.53118Z" fill="#303435"/>
</g>
<defs>
<clipPath id="clip0">
<rect width="16" height="16" fill="white"/>
</clipPath>
</defs>
</svg>
