<svg width="378" height="446" viewBox="0 0 378 446" fill="none" xmlns="http://www.w3.org/2000/svg">
<ellipse cx="189" cy="256.773" rx="188.27" ry="189.227" fill="#B1E4DD"/>
<path d="M185.801 125.666L189.914 106.473C196.488 113.15 211.132 119.955 230.415 107.709L239.266 124.295C237.075 128.746 230.489 139.064 213.341 139.064C200.018 139.064 189.307 130.534 185.801 125.666Z" fill="url(#paint0_linear)"/>
<path d="M210.062 115.202C201.281 115.636 182.843 110 175.818 83.9909C169.526 76.9106 160.189 62.0563 173.184 59.282C169.819 49.0227 165.633 28.2441 175.818 27.2037C173.477 22.7243 173.799 13.1586 193.818 10.7311C207.281 4.22874 233.33 -5.56814 229.818 7.26317C235.964 3.36175 248.256 5.09571 237.281 13.7655C249.866 11.4536 270.295 11.5981 251.329 30.6716C252.647 35.0065 253.788 46.7975 247.817 59.282C260.812 62.0563 251.476 76.9106 245.183 83.9909C238.159 110 218.842 115.636 210.062 115.202Z" fill="url(#paint1_linear)"/>
<path d="M174.252 27.2882C163.753 28.3713 168.067 50.0042 171.537 60.6853L173.347 66.5523C177.269 60.3844 184.75 45.5212 183.302 35.4118C193.107 37.6683 217.965 41.0983 238.963 36.7657C239.113 44.2876 240.863 60.5048 246.655 65.1984L248.466 60.6853C254.62 47.6875 253.443 35.4118 252.086 30.8987C271.635 11.0409 251.151 11.0028 238.179 13.4098C248.611 4.96659 236.247 2.46597 229.912 6.52779C233.532 -6.83106 206.683 3.3686 192.805 10.1383C172.17 12.6656 171.838 22.6246 174.252 27.2882Z" fill="#001F44"/>
<path d="M129.901 127.128C153.3 114.888 168.98 122.574 186.366 122.574C209.477 150.222 230.72 134.094 238.453 122.574C253.369 122.926 285.019 124.331 292.291 127.128C299.563 129.926 318.222 141.117 326.642 146.363C338.546 153.358 358.884 170.909 361.484 183.958C364.969 201.445 358.871 230.297 330.126 231.171C305.736 231.171 294.413 216.308 294.413 197.073C294.447 183.958 305.039 158.97 323.158 159.478C307.516 157.094 282.884 178.77 282.884 269.698L284.469 353.667C284.692 365.452 278.41 376.403 268.124 382.159C264.683 384.085 261.031 385.607 257.24 386.693L163.467 413.574C151.053 417.133 137.704 415.088 126.924 407.977C123.889 405.976 122.149 402.511 122.353 398.882L129.901 265.19V212.811C113.602 213.976 81.0021 219.28 81.0021 231.171C81.0021 243.062 101.318 280.13 111.771 296.159C104.507 298.755 101.01 310.733 99.2944 320.35C83.3249 306.944 47.0307 274.012 36.578 239.04C26.1252 204.067 94.4382 149.86 129.901 127.128Z" fill="url(#paint2_linear)"/>
<path d="M152.922 276.143L103.476 353.596C101.138 357.259 101.416 361.969 106.567 367.203C110.687 371.39 116.525 368.947 118.928 367.203L161.678 282.423L152.922 276.143Z" fill="#885353"/>
<path d="M146.824 268.896C147.638 264.05 153.608 258.463 156.492 256.276C172.944 262.67 188.65 266.17 184.986 273.439C182.384 278.602 177.232 282.543 173.067 284.936C170.405 286.465 167.156 286.157 164.518 284.585C153.646 278.106 146.099 273.208 146.824 268.896Z" fill="#001F44"/>
<path d="M136.283 295.747C125.9 294 117.047 294.485 114.038 296.825C112.083 295.569 111.768 295.747 111.768 295.747C106.581 296.825 98.2806 313.516 98.2806 316.628C98.2806 319.74 98.5892 320.564 101.099 322.946C135.999 352.206 134.668 334.021 140.126 332.471C144.492 331.23 144.781 328.533 144.38 327.34C149.976 326.369 149.659 322.718 148.8 321.013C153.407 320.318 154.412 313.148 149.124 314.357C158.892 309.274 147.194 305.455 140.124 304.182C143.796 299.406 139.093 296.569 136.283 295.747Z" fill="#FDA5A6"/>
<path d="M327.258 240.685C342.585 229.084 342.54 202.399 343.441 178.286C343.681 171.856 341.897 163.34 339.944 151.892C336.961 134.407 336.946 121.885 338.798 109.639C340.545 96.4314 328.027 84.6864 321.302 91.6364C304.811 108.68 309.748 134.276 313.963 150.389C310.655 152.899 306.022 153.492 285.96 150.46C271.298 148.243 265.759 152.085 264.851 158.464C264.154 163.358 262.663 170.594 281.857 172.669C273.272 172.669 262.453 170.238 260.854 180.808C259.037 192.82 269.031 193.933 276.812 195.489C260.021 195.294 258.913 197.271 258.009 207.124C257.134 216.665 266.616 219.353 275.444 220.002C268.195 220.164 260.848 219.311 259.173 230.392C257.988 238.226 272.499 242.919 276.812 244.11C291.942 246.397 310.346 253.486 327.258 240.685Z" fill="#FDA4A4"/>
<path d="M185.182 274.842C181.776 280.275 177.986 283.257 174.28 285.344C171.156 287.102 167.286 286.591 164.384 284.487L163.54 283.875C162.534 281.867 167.566 276.548 171.593 271.329C175.619 266.109 177.632 264.303 180.149 265.307L180.185 265.326C182.723 266.675 188.688 269.847 185.182 274.842Z" fill="#324964"/>
<defs>
<linearGradient id="paint0_linear" x1="209.598" y1="106.04" x2="209.598" y2="136.084" gradientUnits="userSpaceOnUse">
<stop stop-color="#F37B7C"/>
<stop offset="1" stop-color="#FDA1A1"/>
</linearGradient>
<linearGradient id="paint1_linear" x1="168.402" y1="14.199" x2="239.248" y2="108.698" gradientUnits="userSpaceOnUse">
<stop stop-color="#F06D6E"/>
<stop offset="1" stop-color="#FFA9A9"/>
</linearGradient>
<linearGradient id="paint2_linear" x1="47.6679" y1="-4.09983" x2="302.513" y2="406.852" gradientUnits="userSpaceOnUse">
<stop stop-color="#53C5B7"/>
<stop offset="1" stop-color="#3FC5A4"/>
</linearGradient>
</defs>
</svg>
