<svg width="62" height="61" viewBox="0 0 62 61" fill="none" xmlns="http://www.w3.org/2000/svg">
<g clip-path="url(#clip0)">
<path d="M46.5 22.9766H43.245C42.2785 19.2937 40.2814 15.9514 37.4806 13.3294C34.6799 10.7074 31.1878 8.91096 27.4012 8.1441C23.6146 7.37724 19.6852 7.67075 16.0597 8.99128C12.4341 10.3118 9.25771 12.6064 6.89141 15.6143C4.52511 18.6223 3.06378 22.2229 2.67349 26.0071C2.28319 29.7914 2.97957 33.6074 4.6835 37.0217C6.38742 40.436 9.03058 43.3116 12.3126 45.3218C15.5946 47.3319 19.384 48.3961 23.25 48.3932H46.5C49.9257 48.3932 53.2111 47.0543 55.6334 44.671C58.0558 42.2878 59.4166 39.0554 59.4166 35.6849C59.4166 32.3144 58.0558 29.082 55.6334 26.6987C53.2111 24.3155 49.9257 22.9766 46.5 22.9766Z" stroke="#4AC4AE" stroke-width="7" stroke-linecap="round" stroke-linejoin="round"/>
</g>
<defs>
<clipPath id="clip0">
<rect width="62" height="61" fill="white"/>
</clipPath>
</defs>
</svg>
