<svg width="62" height="61" viewBox="0 0 62 61" fill="none" xmlns="http://www.w3.org/2000/svg">
<path d="M56.8333 43.0054V50.6304C56.8362 51.3383 56.6889 52.0389 56.4006 52.6875C56.1124 53.3361 55.6897 53.9183 55.1595 54.3968C54.6294 54.8753 54.0035 55.2397 53.3219 55.4664C52.6404 55.6932 51.9182 55.7774 51.2017 55.7137C43.2523 54.8639 35.6164 52.1914 28.9075 47.9108C22.6657 44.0085 17.3738 38.8019 13.4075 32.6608C9.0416 26.0301 6.32462 18.4809 5.47666 10.6246C5.4121 9.92172 5.497 9.21334 5.72595 8.54454C5.9549 7.87573 6.32288 7.26116 6.80647 6.73995C7.29006 6.21873 7.87865 5.8023 8.53478 5.51715C9.19091 5.23201 9.9002 5.08441 10.6175 5.08374H18.3675C19.6212 5.0716 20.8366 5.5084 21.7872 6.31272C22.7378 7.11704 23.3587 8.234 23.5342 9.45541C23.8613 11.8956 24.4679 14.2915 25.3425 16.5975C25.6901 17.5072 25.7653 18.4959 25.5592 19.4464C25.3532 20.3969 24.8746 21.2694 24.18 21.9604L20.8992 25.1883C24.5767 31.5515 29.9317 36.8201 36.3992 40.4383L39.68 37.2104C40.3824 36.527 41.2691 36.0561 42.2352 35.8534C43.2013 35.6507 44.2062 35.7247 45.1308 36.0667C47.4746 36.9271 49.9098 37.524 52.39 37.8458C53.6449 38.02 54.7909 38.6419 55.6102 39.5932C56.4295 40.5445 56.8648 41.7589 56.8333 43.0054Z" stroke="#4AC4AE" stroke-width="7" stroke-linecap="round" stroke-linejoin="round"/>
</svg>
