<svg width="831" height="508" viewBox="0 0 831 508" fill="none" xmlns="http://www.w3.org/2000/svg">
<circle cx="464.309" cy="238" r="237.692" fill="#B1E4DD"/>
<rect x="676.939" y="63.3689" width="29.9137" height="425.259" rx="14.9568" transform="rotate(90 676.939 63.3689)" fill="#3FC5A5"/>
<rect x="677" y="382" width="30" height="425" rx="15" transform="rotate(90 677 382)" fill="#3FC5A5"/>
<path d="M344.973 198.232H214C215.568 189.378 224.395 188.218 228.612 188.745C237.308 173.987 248.392 177.091 252.847 180.488C256.767 176.447 263.895 163.205 282.783 158.351C309.584 151.464 319.848 172.582 321.63 184.001C334.46 177.817 342.538 190.912 344.973 198.232Z" fill="white"/>
<path d="M419.843 215.217L422 205.5C425.731 209.632 435.75 215.217 446.212 206.694L450 215.5C448.756 218.255 445 224.256 435.266 224.256C427.704 224.256 421.833 218.23 419.843 215.217Z" fill="url(#paint0_linear)"/>
<path d="M434.834 211.307C429.84 211.559 419.353 208.288 415.358 193.193C411.779 189.084 406.469 180.464 413.86 178.853C411.946 172.899 409.565 160.84 415.358 160.237C414.026 157.637 414.21 152.085 425.596 150.677C433.253 146.903 448.068 141.217 446.07 148.664C449.566 146.4 456.558 147.406 450.315 152.438C457.473 151.096 469.092 151.18 458.305 162.249C459.055 164.765 459.704 171.608 456.308 178.853C463.699 180.464 458.389 189.084 454.81 193.193C450.815 208.288 439.828 211.559 434.834 211.307Z" fill="url(#paint1_linear)"/>
<path d="M414.711 160.605C408.739 161.224 411.193 173.575 413.166 179.674L414.196 183.024C416.426 179.502 420.682 171.016 419.858 165.244C425.434 166.532 439.573 168.49 451.515 166.017C451.601 170.311 452.596 179.571 455.89 182.251L456.92 179.674C460.42 172.253 459.751 165.244 458.979 162.667C470.098 151.329 458.121 151.243 450.743 152.617C457.177 147.464 449.971 146.433 446.368 148.752C448.427 141.125 433.156 146.948 425.263 150.814C413.527 152.257 413.338 157.943 414.711 160.605Z" fill="#001F44"/>
<path d="M584.304 310.331C578.427 313.983 576.026 319.82 575.561 322.282C572.148 321.95 568.6 320.858 567.253 320.353C564.628 327.029 560.565 340.168 565.321 339.309C570.077 338.45 575.812 338.402 578.085 338.486C608.009 337.739 616.877 322.378 618.893 319.241C620.506 316.731 619.476 315.276 618.759 314.862C621.095 311.951 619.351 310.289 618.187 309.821C620.156 307.476 617.533 303.504 615.452 306.399C613.788 308.715 610.121 311.377 608.495 312.418C610.416 307.956 601.458 305.215 596.739 304.402C597.317 301.131 594.68 298.981 593.29 298.314C591.303 301.755 586.472 307.759 584.304 310.331Z" fill="#FA9394"/>
<path d="M568 339C565.6 330.6 567 323.167 568 320.5C567.6 327.3 570.833 335.333 572.5 338.5C570.9 338.5 568.833 338.833 568 339Z" fill="#D26D6E"/>
<path d="M590.808 317.158L595.58 307.829C604.76 309.524 601.716 313.283 599.046 314.95L590.808 317.158Z" fill="#B1E4DD"/>
<path d="M353.477 116.448C349.824 122.325 343.987 124.725 341.525 125.191C341.857 128.604 342.95 132.152 343.454 133.499C336.778 136.124 323.64 140.187 324.498 135.431C325.357 130.675 325.405 124.94 325.322 122.667C326.068 92.7431 341.429 83.8745 344.566 81.8585C347.076 80.2458 348.531 81.2762 348.945 81.993C351.856 79.6568 353.518 81.4007 353.986 82.5646C356.331 80.5961 360.303 83.2185 357.408 85.2994C355.092 86.9642 352.43 90.6311 351.389 92.2565C355.851 90.3357 358.592 99.2938 359.405 104.013C362.676 103.435 364.827 106.072 365.493 107.462C362.052 109.449 356.048 114.28 353.477 116.448Z" fill="#FDA3A3"/>
<path d="M346.649 109.944L355.978 105.172C354.283 95.9923 350.524 99.0363 348.857 101.706L346.649 109.944Z" fill="#B1E4DD"/>
<path d="M342.998 130.433C335.135 134.24 327.572 134.138 324.773 133.611C331.541 132.837 338.667 127.186 341.5 125C341.775 126.576 342.691 129.641 342.998 130.433Z" fill="#D26D6E"/>
<path d="M387.703 215.442C397.753 219.045 413.498 216.943 420.114 215.442C433.38 231.254 445.574 222.03 450.013 215.442C483.58 220.846 498.002 240.044 501.017 248.967C505.12 264.228 515.036 296.352 521.87 302.756C530.513 307.36 556.627 315.516 568.603 319.018C565.186 326.223 567.179 336.364 568.603 340.534C558.469 340.284 533.729 338.432 515.84 333.028C497.951 327.624 485.104 306.759 480.917 297.002L487.294 375.56C487.542 378.607 485.987 381.519 483.316 383.008C477.965 385.992 471.903 387.466 465.779 387.273L405.953 385.388C399.277 385.178 392.788 383.125 387.206 379.456C384.715 377.819 383.284 374.977 383.453 372L387.703 297.002C387.703 282.241 376.145 259.725 365.844 246.965C354.314 232.683 336.95 208.687 331.925 190.674C327.87 176.135 324.807 148.06 323.634 134.383C323.634 133.632 324.558 133.636 324.89 133.632C332.975 133.557 339.277 130.268 341.975 128.128C342.227 127.929 342.729 128.128 342.98 128.379C347.335 140.638 355.392 165.956 356.799 169.158L356.807 169.176C358.606 173.272 375.159 210.946 387.703 215.442Z" fill="url(#paint2_linear)"/>
<path fill-rule="evenodd" clip-rule="evenodd" d="M655.287 76.3046C660.81 76.3046 665.287 80.7817 665.287 86.3046V388.887C665.287 394.41 660.81 398.887 655.287 398.887L272.435 398.887C266.912 398.887 262.435 394.41 262.435 388.887V86.3046C262.435 80.7817 266.912 76.3046 272.435 76.3046L655.287 76.3046ZM647.728 103.863C647.728 98.3406 643.251 93.8635 637.728 93.8635H495.612V381.328H637.728C643.251 381.328 647.728 376.851 647.728 371.328V103.863ZM478.053 93.8635V381.328H289.994C284.471 381.328 279.994 376.851 279.994 371.328V103.863C279.994 98.3406 284.471 93.8635 289.994 93.8635H478.053Z" fill="#A2D9D1"/>
<path d="M596.091 305.178C510.671 253.486 403.93 148.796 359.482 103.793L355.973 105.05C451.018 204.007 552.312 283.807 593.585 309.954L596.091 305.178Z" fill="white"/>
<g filter="url(#filter0_f)">
<path d="M826 206H556C559.233 187.317 577.429 184.87 586.122 185.982C604.049 154.843 626.898 161.392 636.082 168.559C644.163 160.033 658.857 132.092 697.796 121.85C753.045 107.319 774.204 151.877 777.878 175.973C804.327 162.924 820.98 190.554 826 206Z" fill="white"/>
</g>
<g filter="url(#filter1_f)">
<path d="M464 498H10C15.4356 467.29 46.0317 463.269 60.6503 465.097C90.7935 413.914 129.214 424.679 144.656 436.459C158.245 422.445 182.952 376.519 248.427 359.685C341.327 335.8 376.906 409.04 383.083 448.645C427.556 427.197 455.558 472.612 464 498Z" fill="white"/>
</g>
<path d="M478 381V309.5C478 330.167 475.7 372.2 466.5 375C457.3 377.8 419.666 380.167 402 381H478Z" fill="#489885"/>
<defs>
<filter id="filter0_f" x="551" y="114" width="280" height="97" filterUnits="userSpaceOnUse" color-interpolation-filters="sRGB">
<feFlood flood-opacity="0" result="BackgroundImageFix"/>
<feBlend mode="normal" in="SourceGraphic" in2="BackgroundImageFix" result="shape"/>
<feGaussianBlur stdDeviation="2.5" result="effect1_foregroundBlur"/>
</filter>
<filter id="filter1_f" x="0" y="345" width="474" height="163" filterUnits="userSpaceOnUse" color-interpolation-filters="sRGB">
<feFlood flood-opacity="0" result="BackgroundImageFix"/>
<feBlend mode="normal" in="SourceGraphic" in2="BackgroundImageFix" result="shape"/>
<feGaussianBlur stdDeviation="5" result="effect1_foregroundBlur"/>
</filter>
<linearGradient id="paint0_linear" x1="434.396" y1="205.661" x2="434.396" y2="224.256" gradientUnits="userSpaceOnUse">
<stop stop-color="#F37B7C"/>
<stop offset="1" stop-color="#FDA1A1"/>
</linearGradient>
<linearGradient id="paint1_linear" x1="411.14" y1="152.689" x2="452.481" y2="206.731" gradientUnits="userSpaceOnUse">
<stop stop-color="#F06D6E"/>
<stop offset="1" stop-color="#FFA9A9"/>
</linearGradient>
<linearGradient id="paint2_linear" x1="340.5" y1="143" x2="486" y2="378.5" gradientUnits="userSpaceOnUse">
<stop stop-color="#53C5B7"/>
<stop offset="1" stop-color="#3FC5A4"/>
</linearGradient>
</defs>
</svg>
