<svg width="112" height="112" viewBox="0 0 112 112" fill="none" xmlns="http://www.w3.org/2000/svg">
<path d="M93.3333 9.33325H18.6667C13.5333 9.33325 9.37999 13.5333 9.37999 18.6666L9.33333 91.3733C9.33333 95.5266 14.3733 97.6266 17.3133 94.6866L28 83.9999H93.3333C98.4667 83.9999 102.667 79.7999 102.667 74.6666V18.6666C102.667 13.5333 98.4667 9.33325 93.3333 9.33325ZM37.3333 51.3333C34.7667 51.3333 32.6667 49.2333 32.6667 46.6666C32.6667 44.0999 34.7667 41.9999 37.3333 41.9999C39.9 41.9999 42 44.0999 42 46.6666C42 49.2333 39.9 51.3333 37.3333 51.3333ZM56 51.3333C53.4333 51.3333 51.3333 49.2333 51.3333 46.6666C51.3333 44.0999 53.4333 41.9999 56 41.9999C58.5667 41.9999 60.6667 44.0999 60.6667 46.6666C60.6667 49.2333 58.5667 51.3333 56 51.3333ZM74.6667 51.3333C72.1 51.3333 70 49.2333 70 46.6666C70 44.0999 72.1 41.9999 74.6667 41.9999C77.2333 41.9999 79.3333 44.0999 79.3333 46.6666C79.3333 49.2333 77.2333 51.3333 74.6667 51.3333Z" fill="white"/>
</svg>
