<svg width="94" height="88" viewBox="0 0 94 88" fill="none" xmlns="http://www.w3.org/2000/svg">
<path d="M84.3333 0.333252H9.66666C4.53333 0.333252 0.379995 4.53325 0.379995 9.66659L0.333328 82.3733C0.333328 86.5266 5.37333 88.6266 8.31333 85.6866L19 74.9999H84.3333C89.4667 74.9999 93.6667 70.7999 93.6667 65.6666V9.66659C93.6667 4.53325 89.4667 0.333252 84.3333 0.333252ZM28.3333 42.3333C25.7667 42.3333 23.6667 40.2333 23.6667 37.6666C23.6667 35.0999 25.7667 32.9999 28.3333 32.9999C30.9 32.9999 33 35.0999 33 37.6666C33 40.2333 30.9 42.3333 28.3333 42.3333ZM47 42.3333C44.4333 42.3333 42.3333 40.2333 42.3333 37.6666C42.3333 35.0999 44.4333 32.9999 47 32.9999C49.5667 32.9999 51.6667 35.0999 51.6667 37.6666C51.6667 40.2333 49.5667 42.3333 47 42.3333ZM65.6667 42.3333C63.1 42.3333 61 40.2333 61 37.6666C61 35.0999 63.1 32.9999 65.6667 32.9999C68.2333 32.9999 70.3333 35.0999 70.3333 37.6666C70.3333 40.2333 68.2333 42.3333 65.6667 42.3333Z" fill="white"/>
</svg>
