<svg width="102" height="102" viewBox="0 0 102 102" fill="none" xmlns="http://www.w3.org/2000/svg">
<g clip-path="url(#clip0)">
<path d="M99.8285 78.8309L76.5 55.5023C71.898 50.9004 65.025 50.0039 59.4867 52.7332L38.25 31.4965V19.125L12.75 0L1.20541e-05 12.75L19.125 38.25H31.4965L52.7332 59.4867C50.0238 65.025 50.9004 71.898 55.5023 76.5L78.8309 99.8285C81.7395 102.737 86.441 102.737 89.3297 99.8285L99.8285 89.3297C102.717 86.4211 102.717 81.7195 99.8285 78.8309ZM66.0809 44.8242C71.7188 44.8242 77.018 47.0156 81.0023 51L84.8672 54.8648C88.0148 53.4902 91.0031 51.5777 93.593 48.9879C100.984 41.5969 103.494 31.1977 101.143 21.7547C100.705 19.9617 98.4539 19.3441 97.1391 20.659L82.3172 35.4809L68.7902 33.2297L66.5391 19.7027L81.3609 4.88086C82.6758 3.56602 82.0383 1.31484 80.2254 0.856641C70.7824 -1.47422 60.3832 1.03594 53.0121 8.40703C47.3344 14.0848 44.6649 21.5754 44.8043 29.0461L61.1602 45.402C62.7738 45.0234 64.4473 44.8242 66.0809 44.8242ZM45.382 61.1602L34.0863 49.8645L3.7254 80.2453C-1.25507 85.2258 -1.25507 93.2941 3.7254 98.2746C8.70587 103.255 16.7742 103.255 21.7547 98.2746L46.3781 73.6512C44.8641 69.6867 44.4059 65.3637 45.382 61.1602ZM12.75 94.0312C10.1203 94.0312 7.96876 91.8797 7.96876 89.25C7.96876 86.6004 10.1004 84.4688 12.75 84.4688C15.3996 84.4688 17.5313 86.6004 17.5313 89.25C17.5313 91.8797 15.3996 94.0312 12.75 94.0312Z" fill="white"/>
</g>
<defs>
<clipPath id="clip0">
<rect width="102" height="102" fill="white"/>
</clipPath>
</defs>
</svg>
