<svg width="148" height="148" viewBox="0 0 148 148" fill="none" xmlns="http://www.w3.org/2000/svg">
<path d="M110.466 58.7065C103.074 46.4162 92.9087 36.0259 80.7833 28.3665C75.3193 24.9035 69.0906 22.8307 62.641 22.3291C56.1914 21.8274 49.7171 22.9122 43.7833 25.4888C38.5931 27.9369 34.0768 31.6117 30.6244 36.1958C27.172 40.7798 24.8874 46.1354 23.9678 51.7999C23.6389 53.8143 23.3511 55.911 23.1045 57.5554H18.9933C17.5847 57.5391 16.1868 57.8025 14.8807 58.3303C13.5746 58.8581 12.3862 59.6398 11.3844 60.6301C10.3825 61.6205 9.58717 62.7998 9.04438 64.0998C8.50158 65.3997 8.22213 66.7945 8.22223 68.2032V103.353C8.22223 104.291 8.59472 105.19 9.25777 105.853C9.92081 106.516 10.8201 106.889 11.7578 106.889H18.87V105.285C18.8595 101.479 19.7653 97.7256 21.5107 94.3428C23.2562 90.96 25.7902 88.0469 28.8986 85.8496C32.0071 83.6524 35.5986 82.2355 39.37 81.7186C43.1413 81.2017 46.9817 81.6 50.5667 82.8799L46.4556 86.991C43.1726 86.3871 39.7879 86.6708 36.6512 87.8127C33.5146 88.9547 30.7397 90.9134 28.6133 93.4865C27.517 94.5865 26.6382 95.8837 26.0233 97.3099C24.7584 99.7578 24.0562 102.457 23.968 105.211C23.8799 107.965 24.4081 110.704 25.514 113.228C26.6198 115.752 28.2755 117.997 30.36 119.799C32.4446 121.601 34.9053 122.914 37.5624 123.643C40.2196 124.373 43.0061 124.499 45.7184 124.014C48.4307 123.528 51.0003 122.443 53.2395 120.837C55.4787 119.231 57.3309 117.146 58.6609 114.732C59.9908 112.319 60.765 109.639 60.9267 106.889H83.4556V105.285C83.4474 101.484 84.3531 97.7358 86.0964 94.3574C87.8396 90.979 90.3693 88.069 93.4724 85.8727C96.5754 83.6764 100.161 82.258 103.927 81.7372C107.693 81.2163 111.528 81.6082 115.111 82.8799L111 86.991C107.717 86.3871 104.332 86.6708 101.196 87.8127C98.059 88.9547 95.2842 90.9134 93.1578 93.4865C92.0614 94.5865 91.1827 95.8837 90.5678 97.3099C89.3201 99.7574 88.6331 102.452 88.5568 105.198C88.4805 107.945 89.0168 110.673 90.1268 113.186C91.2367 115.699 92.8924 117.934 94.9737 119.727C97.0549 121.52 99.5094 122.828 102.159 123.554C104.808 124.28 107.586 124.407 110.291 123.926C112.996 123.444 115.56 122.367 117.796 120.771C120.032 119.175 121.885 117.101 123.22 114.7C124.554 112.299 125.337 109.63 125.512 106.889H136.242C137.18 106.889 138.079 106.516 138.742 105.853C139.405 105.19 139.778 104.291 139.778 103.353V96.0354C139.747 87.4376 136.846 79.0963 131.536 72.334C126.226 65.5718 118.811 60.7758 110.466 58.7065ZM49.3333 57.5554H32.8889C32.8889 56.1165 33.3 54.6365 33.5467 53.1565C34.2373 48.662 36.06 44.4171 38.8433 40.8212C41.6265 37.2252 45.2789 34.3964 49.4567 32.601L49.3333 57.5554ZM42.5911 116.591C40.5584 116.591 38.5713 115.988 36.8811 114.859C35.1909 113.73 33.8736 112.124 33.0957 110.246C32.3178 108.368 32.1143 106.302 32.5108 104.308C32.9074 102.314 33.8863 100.483 35.3236 99.0457C36.761 97.6083 38.5923 96.6295 40.586 96.2329C42.5797 95.8363 44.6462 96.0399 46.5243 96.8178C48.4023 97.5957 50.0074 98.913 51.1368 100.603C52.2661 102.293 52.8689 104.28 52.8689 106.313C52.8689 109.039 51.7861 111.653 49.8586 113.581C47.9311 115.508 45.317 116.591 42.5911 116.591ZM78.1111 78.111H65.7778V69.8888H78.1111V78.111ZM53.4445 57.5554V30.7099C61.169 29.6584 69.0186 31.3301 75.6444 35.4376C84.7485 41.1606 92.5837 48.6879 98.6667 57.5554H53.4445ZM107.136 116.591C105.103 116.591 103.116 115.988 101.426 114.859C99.7354 113.73 98.418 112.124 97.6401 110.246C96.8622 108.368 96.6587 106.302 97.0553 104.308C97.4518 102.314 98.4307 100.483 99.8681 99.0457C101.305 97.6083 103.137 96.6295 105.13 96.2329C107.124 95.8363 109.191 96.0399 111.069 96.8178C112.947 97.5957 114.552 98.913 115.681 100.603C116.811 102.293 117.413 104.28 117.413 106.313C117.413 109.039 116.331 111.653 114.403 113.581C112.476 115.508 109.861 116.591 107.136 116.591Z" fill="white"/>
</svg>
