<svg width="132" height="103" viewBox="0 0 132 103" fill="none" xmlns="http://www.w3.org/2000/svg">
<path d="M102.466 36.7065C95.0738 24.4162 84.9087 14.0259 72.7833 6.36654C67.3193 2.90351 61.0906 0.830689 54.641 0.329056C48.1914 -0.172576 41.7171 0.912228 35.7833 3.48876C30.5931 5.93694 26.0768 9.61173 22.6244 14.1958C19.172 18.7798 16.8874 24.1354 15.9678 29.7999C15.6389 31.8143 15.3511 33.911 15.1045 35.5554H10.9933C9.58471 35.5391 8.18684 35.8025 6.88073 36.3303C5.57461 36.8581 4.38621 37.6398 3.38437 38.6301C2.38253 39.6205 1.58717 40.7998 1.04438 42.0998C0.50158 43.3997 0.222135 44.7945 0.222229 46.2032V81.3532C0.222229 82.2909 0.594724 83.1902 1.25777 83.8532C1.92081 84.5163 2.8201 84.8888 3.75778 84.8888H10.87V83.2854C10.8595 79.4788 11.7653 75.7256 13.5107 72.3428C15.2562 68.96 17.7902 66.0469 20.8986 63.8496C24.0071 61.6524 27.5986 60.2355 31.37 59.7186C35.1413 59.2017 38.9817 59.6 42.5667 60.8799L38.4556 64.991C35.1726 64.3871 31.7879 64.6708 28.6512 65.8127C25.5146 66.9547 22.7397 68.9134 20.6133 71.4865C19.517 72.5865 18.6382 73.8837 18.0233 75.3099C16.7584 77.7578 16.0562 80.4573 15.968 83.2113C15.8799 85.9653 16.4081 88.7042 17.514 91.228C18.6198 93.7517 20.2755 95.9966 22.36 97.7986C24.4446 99.6006 26.9053 100.914 29.5624 101.643C32.2196 102.373 35.0061 102.499 37.7184 102.014C40.4307 101.528 43.0003 100.443 45.2395 98.837C47.4787 97.2313 49.3309 95.1456 50.6609 92.7324C51.9908 90.3192 52.765 87.6394 52.9267 84.8888H75.4556V83.2854C75.4474 79.4838 76.3531 75.7358 78.0964 72.3574C79.8396 68.979 82.3693 66.069 85.4724 63.8727C88.5754 61.6764 92.1609 60.258 95.9267 59.7372C99.6926 59.2163 103.528 59.6082 107.111 60.8799L103 64.991C99.717 64.3871 96.3324 64.6708 93.1957 65.8127C90.059 66.9547 87.2842 68.9134 85.1578 71.4865C84.0614 72.5865 83.1827 73.8837 82.5678 75.3099C81.3201 77.7574 80.6331 80.4522 80.5568 83.1984C80.4805 85.9446 81.0168 88.6733 82.1268 91.1864C83.2367 93.6994 84.8924 95.9337 86.9737 97.727C89.0549 99.5203 91.5094 100.828 94.1589 101.554C96.8085 102.28 99.5865 102.407 102.291 101.926C104.996 101.444 107.56 100.367 109.796 98.771C112.032 97.1751 113.885 95.1013 115.22 92.7001C116.554 90.2988 117.337 87.6305 117.512 84.8888H128.242C129.18 84.8888 130.079 84.5163 130.742 83.8532C131.405 83.1902 131.778 82.2909 131.778 81.3532V74.0354C131.747 65.4376 128.846 57.0963 123.536 50.334C118.226 43.5718 110.811 38.7758 102.466 36.7065ZM41.3333 35.5554H24.8889C24.8889 34.1165 25.3 32.6365 25.5467 31.1565C26.2373 26.662 28.06 22.4171 30.8433 18.8212C33.6265 15.2252 37.2789 12.3964 41.4567 10.601L41.3333 35.5554ZM34.5911 94.591C32.5584 94.591 30.5713 93.9882 28.8811 92.8589C27.1909 91.7295 25.8736 90.1244 25.0957 88.2463C24.3178 86.3683 24.1143 84.3018 24.5108 82.3081C24.9074 80.3144 25.8863 78.4831 27.3236 77.0457C28.761 75.6083 30.5923 74.6295 32.586 74.2329C34.5797 73.8363 36.6462 74.0399 38.5243 74.8178C40.4023 75.5957 42.0074 76.913 43.1368 78.6032C44.2661 80.2934 44.8689 82.2805 44.8689 84.3132C44.8689 87.039 43.7861 89.6532 41.8586 91.5807C39.9311 93.5081 37.317 94.591 34.5911 94.591ZM70.1111 56.111H57.7778V47.8888H70.1111V56.111ZM45.4445 35.5554V8.70987C53.169 7.65844 61.0186 9.33011 67.6444 13.4376C76.7485 19.1606 84.5837 26.6879 90.6667 35.5554H45.4445ZM99.1356 94.591C97.1028 94.591 95.1157 93.9882 93.4255 92.8589C91.7354 91.7295 90.418 90.1244 89.6401 88.2463C88.8622 86.3683 88.6587 84.3018 89.0553 82.3081C89.4518 80.3144 90.4307 78.4831 91.8681 77.0457C93.3055 75.6083 95.1368 74.6295 97.1305 74.2329C99.1242 73.8363 101.191 74.0399 103.069 74.8178C104.947 75.5957 106.552 76.913 107.681 78.6032C108.811 80.2934 109.413 82.2805 109.413 84.3132C109.413 87.039 108.331 89.6532 106.403 91.5807C104.476 93.5081 101.861 94.591 99.1356 94.591Z" fill="white"/>
</svg>
