<svg width="25" height="18" viewBox="0 0 25 18" fill="none" xmlns="http://www.w3.org/2000/svg">
<path d="M8.99545 7.86595C9.90973 8.28418 10.6118 8.91153 11.1016 9.74799C11.624 10.5523 11.8852 11.5013 11.8852 12.5952C11.8852 14.2038 11.3628 15.5067 10.3179 16.504C9.273 17.5013 7.93422 18 6.30157 18C4.66892 18 3.33014 17.5013 2.28524 16.504C1.24034 15.5067 0.717896 14.2038 0.717896 12.5952C0.717896 11.8552 0.815855 11.1153 1.01177 10.3753C1.20769 9.63539 1.64851 8.54156 2.33422 7.09383L5.46892 0H11.2975L8.99545 7.86595ZM21.8281 7.86595C22.7424 8.28418 23.4444 8.91153 23.9342 9.74799C24.4567 10.5523 24.7179 11.5013 24.7179 12.5952C24.7179 14.2038 24.1954 15.5067 23.1505 16.504C22.1056 17.5013 20.7669 18 19.1342 18C17.5016 18 16.1628 17.5013 15.1179 16.504C14.073 15.5067 13.5505 14.2038 13.5505 12.5952C13.5505 11.8552 13.6485 11.1153 13.8444 10.3753C14.0403 9.63539 14.4812 8.54156 15.1669 7.09383L18.3016 0H24.1301L21.8281 7.86595Z" fill="#303435"/>
</svg>
