<svg width="209" height="199" viewBox="0 0 209 199" fill="none" xmlns="http://www.w3.org/2000/svg">
<rect x="9.57407" width="199" height="199" rx="99.5" fill="#B1E4DD"/>
<g filter="url(#filter0_bii)">
<ellipse cx="28.5741" cy="77" rx="28" ry="30" fill="white" fill-opacity="0.03"/>
</g>
<g filter="url(#filter1_bii)">
<ellipse cx="90.5741" cy="47.5" rx="9" ry="9.5" fill="white" fill-opacity="0.03"/>
</g>
<g filter="url(#filter2_bii)">
<ellipse cx="197.074" cy="62" rx="11.5" ry="12" fill="white" fill-opacity="0.03"/>
</g>
<path d="M89.2599 115.52C89.2599 115.52 41.1012 125.465 37.5741 137.591C46.5275 163.75 100.655 200.536 149.899 173.56C189.506 151.862 193.445 112.114 191.004 95.083C183.19 92.1401 176.624 100.124 174.318 104.484C174.318 104.484 160.073 82.0035 149.899 84.0471C149.899 84.0471 142.167 52.166 127.109 60.3406C115.062 66.8804 116.392 84.3197 118.562 92.2219C113.95 86.7721 101.062 76.8535 86.411 80.7773C71.76 84.7012 82.2056 105.574 89.2599 115.52Z" fill="white"/>
<path d="M110.771 68.9459C111.61 70.3987 111.163 73.104 109.71 73.9428C108.257 74.7816 105.691 73.816 104.852 72.3632C104.013 70.9103 104.081 67.5474 105.534 66.7086C106.986 65.8698 109.932 67.493 110.771 68.9459Z" fill="white"/>
<path d="M161.846 53.5052C161.329 54.0214 160.142 54.1383 159.626 53.622C159.109 53.1058 159.226 51.9183 159.742 51.4021C160.259 50.8858 161.68 50.5353 162.196 51.0516C162.712 51.5678 162.362 52.989 161.846 53.5052Z" fill="white"/>
<circle cx="61.5741" cy="109" r="4" fill="white"/>
<circle cx="154.574" cy="70" r="4" fill="white"/>
<circle cx="74.0741" cy="66.5" r="3.5" fill="white"/>
<defs>
<filter id="filter0_bii" x="-4.42593" y="42" width="66" height="70" filterUnits="userSpaceOnUse" color-interpolation-filters="sRGB">
<feFlood flood-opacity="0" result="BackgroundImageFix"/>
<feGaussianBlur in="BackgroundImage" stdDeviation="2.5"/>
<feComposite in2="SourceAlpha" operator="in" result="effect1_backgroundBlur"/>
<feBlend mode="normal" in="SourceGraphic" in2="effect1_backgroundBlur" result="shape"/>
<feColorMatrix in="SourceAlpha" type="matrix" values="0 0 0 0 0 0 0 0 0 0 0 0 0 0 0 0 0 0 127 0" result="hardAlpha"/>
<feOffset dy="4"/>
<feGaussianBlur stdDeviation="2"/>
<feComposite in2="hardAlpha" operator="arithmetic" k2="-1" k3="1"/>
<feColorMatrix type="matrix" values="0 0 0 0 1 0 0 0 0 1 0 0 0 0 1 0 0 0 0.15 0"/>
<feBlend mode="normal" in2="shape" result="effect2_innerShadow"/>
<feColorMatrix in="SourceAlpha" type="matrix" values="0 0 0 0 0 0 0 0 0 0 0 0 0 0 0 0 0 0 127 0" result="hardAlpha"/>
<feOffset/>
<feGaussianBlur stdDeviation="9"/>
<feComposite in2="hardAlpha" operator="arithmetic" k2="-1" k3="1"/>
<feColorMatrix type="matrix" values="0 0 0 0 1 0 0 0 0 1 0 0 0 0 1 0 0 0 0.7 0"/>
<feBlend mode="normal" in2="effect2_innerShadow" result="effect3_innerShadow"/>
</filter>
<filter id="filter1_bii" x="76.5741" y="33" width="28" height="29" filterUnits="userSpaceOnUse" color-interpolation-filters="sRGB">
<feFlood flood-opacity="0" result="BackgroundImageFix"/>
<feGaussianBlur in="BackgroundImage" stdDeviation="2.5"/>
<feComposite in2="SourceAlpha" operator="in" result="effect1_backgroundBlur"/>
<feBlend mode="normal" in="SourceGraphic" in2="effect1_backgroundBlur" result="shape"/>
<feColorMatrix in="SourceAlpha" type="matrix" values="0 0 0 0 0 0 0 0 0 0 0 0 0 0 0 0 0 0 127 0" result="hardAlpha"/>
<feOffset dy="4"/>
<feGaussianBlur stdDeviation="2"/>
<feComposite in2="hardAlpha" operator="arithmetic" k2="-1" k3="1"/>
<feColorMatrix type="matrix" values="0 0 0 0 1 0 0 0 0 1 0 0 0 0 1 0 0 0 0.15 0"/>
<feBlend mode="normal" in2="shape" result="effect2_innerShadow"/>
<feColorMatrix in="SourceAlpha" type="matrix" values="0 0 0 0 0 0 0 0 0 0 0 0 0 0 0 0 0 0 127 0" result="hardAlpha"/>
<feOffset/>
<feGaussianBlur stdDeviation="9"/>
<feComposite in2="hardAlpha" operator="arithmetic" k2="-1" k3="1"/>
<feColorMatrix type="matrix" values="0 0 0 0 1 0 0 0 0 1 0 0 0 0 1 0 0 0 0.7 0"/>
<feBlend mode="normal" in2="effect2_innerShadow" result="effect3_innerShadow"/>
</filter>
<filter id="filter2_bii" x="180.574" y="45" width="33" height="34" filterUnits="userSpaceOnUse" color-interpolation-filters="sRGB">
<feFlood flood-opacity="0" result="BackgroundImageFix"/>
<feGaussianBlur in="BackgroundImage" stdDeviation="2.5"/>
<feComposite in2="SourceAlpha" operator="in" result="effect1_backgroundBlur"/>
<feBlend mode="normal" in="SourceGraphic" in2="effect1_backgroundBlur" result="shape"/>
<feColorMatrix in="SourceAlpha" type="matrix" values="0 0 0 0 0 0 0 0 0 0 0 0 0 0 0 0 0 0 127 0" result="hardAlpha"/>
<feOffset dy="4"/>
<feGaussianBlur stdDeviation="2"/>
<feComposite in2="hardAlpha" operator="arithmetic" k2="-1" k3="1"/>
<feColorMatrix type="matrix" values="0 0 0 0 1 0 0 0 0 1 0 0 0 0 1 0 0 0 0.15 0"/>
<feBlend mode="normal" in2="shape" result="effect2_innerShadow"/>
<feColorMatrix in="SourceAlpha" type="matrix" values="0 0 0 0 0 0 0 0 0 0 0 0 0 0 0 0 0 0 127 0" result="hardAlpha"/>
<feOffset/>
<feGaussianBlur stdDeviation="9"/>
<feComposite in2="hardAlpha" operator="arithmetic" k2="-1" k3="1"/>
<feColorMatrix type="matrix" values="0 0 0 0 1 0 0 0 0 1 0 0 0 0 1 0 0 0 0.7 0"/>
<feBlend mode="normal" in2="effect2_innerShadow" result="effect3_innerShadow"/>
</filter>
</defs>
</svg>
