<svg width="200" height="199" viewBox="0 0 200 199" fill="none" xmlns="http://www.w3.org/2000/svg">
<rect x="0.574066" width="199" height="199" rx="99.5" fill="#B1E4DD"/>
<path d="M140.199 82.5219L124.861 75.3226L143.5 40.9451C144.896 38.3699 148.063 37.3365 150.709 38.5925C153.271 39.8082 154.492 42.769 153.533 45.4373L140.199 82.5219Z" fill="white"/>
<path d="M148.044 109.597L99.351 88.1592C104.618 80.6055 114.486 77.8222 122.923 81.5107L137.74 87.9879C146.069 91.6287 150.458 100.835 148.044 109.597Z" fill="white"/>
<path fill-rule="evenodd" clip-rule="evenodd" d="M101.386 98.0161C103.057 98.971 103.89 99.4246 105.924 100.52C105.298 103.181 102.474 106.467 101.699 107.25C87.8978 121.18 72.9654 126.863 60.6438 129.398C62.1825 131.035 64.1475 132.874 66.6272 134.795C75.1674 141.411 90.0495 149.188 115.135 152.929C115.323 152.587 115.521 152.223 115.73 151.84C117.26 149.035 119.335 145.196 121.52 141.054C125.976 132.602 130.616 123.395 132.252 118.889L134.229 113.446L145.114 117.4L143.138 122.842C141.174 128.249 136.11 138.214 131.764 146.456C129.547 150.66 127.445 154.549 125.898 157.385C125.124 158.804 124.489 159.961 124.046 160.764C123.824 161.166 123.651 161.479 123.532 161.693C123.473 161.8 123.428 161.882 123.397 161.937L123.35 162.023C123.35 162.023 123.349 162.023 118.288 159.21L123.349 162.023C122.199 164.092 119.906 165.252 117.558 164.954C88.3511 161.243 70.3606 152.337 59.5345 143.95C54.1371 139.769 50.5842 135.765 48.3391 132.7C47.2182 131.169 46.4271 129.878 45.8967 128.923C45.6315 128.445 45.4315 128.051 45.2881 127.754C45.2164 127.605 45.1588 127.48 45.1143 127.38C45.092 127.331 45.073 127.287 45.0571 127.25C45.0491 127.232 45.0419 127.215 45.0355 127.2L45.0265 127.179L45.0224 127.169C45.0205 127.164 45.0186 127.16 50.3648 124.935L45.0186 127.16C44.2949 125.421 44.4622 123.439 45.4671 121.845C46.4721 120.252 48.1891 119.248 50.0703 119.152C60.2316 118.634 79.0943 113.985 94.6113 98.3226C95.7832 97.1398 96.2209 96.451 96.8469 95.512C98.2554 96.2945 99.1945 96.764 101.386 98.0161Z" fill="white"/>
<path d="M84.6394 130.413C84.6394 130.413 76.1882 137.612 69.4584 137.612C69.1975 140.846 70.0937 146.743 74.9361 143.246C80.5703 139.177 83.4917 133.334 84.6394 130.413Z" fill="white"/>
<path d="M111.526 133.964C111.526 133.964 98.22 146.452 87.1746 146.979C87.0001 152.313 88.9336 161.928 96.6069 155.804C105.535 148.679 109.872 138.853 111.526 133.964Z" fill="white"/>
<g filter="url(#filter0_bii)">
<ellipse cx="35.0741" cy="38.5" rx="29.5" ry="30.5" fill="white" fill-opacity="0.03"/>
</g>
<ellipse cx="73.6195" cy="68.9609" rx="12.4481" ry="12.9091" fill="white"/>
<circle cx="54.2558" cy="40.8377" r="7.83766" fill="white"/>
<circle cx="80.3857" cy="43.0714" r="5.07143" fill="white"/>
<g filter="url(#filter1_bii)">
<ellipse cx="65.0741" cy="84.5" rx="16.5" ry="17.5" fill="white" fill-opacity="0.03"/>
</g>
<g filter="url(#filter2_bii)">
<ellipse cx="75.5741" cy="43.5" rx="6" ry="6.5" fill="white" fill-opacity="0.03"/>
</g>
<defs>
<filter id="filter0_bii" x="-0.425934" y="2" width="71" height="73" filterUnits="userSpaceOnUse" color-interpolation-filters="sRGB">
<feFlood flood-opacity="0" result="BackgroundImageFix"/>
<feGaussianBlur in="BackgroundImage" stdDeviation="3"/>
<feComposite in2="SourceAlpha" operator="in" result="effect1_backgroundBlur"/>
<feBlend mode="normal" in="SourceGraphic" in2="effect1_backgroundBlur" result="shape"/>
<feColorMatrix in="SourceAlpha" type="matrix" values="0 0 0 0 0 0 0 0 0 0 0 0 0 0 0 0 0 0 127 0" result="hardAlpha"/>
<feOffset dy="4"/>
<feGaussianBlur stdDeviation="2"/>
<feComposite in2="hardAlpha" operator="arithmetic" k2="-1" k3="1"/>
<feColorMatrix type="matrix" values="0 0 0 0 1 0 0 0 0 1 0 0 0 0 1 0 0 0 0.15 0"/>
<feBlend mode="normal" in2="shape" result="effect2_innerShadow"/>
<feColorMatrix in="SourceAlpha" type="matrix" values="0 0 0 0 0 0 0 0 0 0 0 0 0 0 0 0 0 0 127 0" result="hardAlpha"/>
<feOffset/>
<feGaussianBlur stdDeviation="9"/>
<feComposite in2="hardAlpha" operator="arithmetic" k2="-1" k3="1"/>
<feColorMatrix type="matrix" values="0 0 0 0 1 0 0 0 0 1 0 0 0 0 1 0 0 0 0.7 0"/>
<feBlend mode="normal" in2="effect2_innerShadow" result="effect3_innerShadow"/>
</filter>
<filter id="filter1_bii" x="43.5741" y="62" width="43" height="45" filterUnits="userSpaceOnUse" color-interpolation-filters="sRGB">
<feFlood flood-opacity="0" result="BackgroundImageFix"/>
<feGaussianBlur in="BackgroundImage" stdDeviation="2.5"/>
<feComposite in2="SourceAlpha" operator="in" result="effect1_backgroundBlur"/>
<feBlend mode="normal" in="SourceGraphic" in2="effect1_backgroundBlur" result="shape"/>
<feColorMatrix in="SourceAlpha" type="matrix" values="0 0 0 0 0 0 0 0 0 0 0 0 0 0 0 0 0 0 127 0" result="hardAlpha"/>
<feOffset dy="4"/>
<feGaussianBlur stdDeviation="2"/>
<feComposite in2="hardAlpha" operator="arithmetic" k2="-1" k3="1"/>
<feColorMatrix type="matrix" values="0 0 0 0 1 0 0 0 0 1 0 0 0 0 1 0 0 0 0.15 0"/>
<feBlend mode="normal" in2="shape" result="effect2_innerShadow"/>
<feColorMatrix in="SourceAlpha" type="matrix" values="0 0 0 0 0 0 0 0 0 0 0 0 0 0 0 0 0 0 127 0" result="hardAlpha"/>
<feOffset/>
<feGaussianBlur stdDeviation="9"/>
<feComposite in2="hardAlpha" operator="arithmetic" k2="-1" k3="1"/>
<feColorMatrix type="matrix" values="0 0 0 0 1 0 0 0 0 1 0 0 0 0 1 0 0 0 0.7 0"/>
<feBlend mode="normal" in2="effect2_innerShadow" result="effect3_innerShadow"/>
</filter>
<filter id="filter2_bii" x="67.5741" y="35" width="16" height="19" filterUnits="userSpaceOnUse" color-interpolation-filters="sRGB">
<feFlood flood-opacity="0" result="BackgroundImageFix"/>
<feGaussianBlur in="BackgroundImage" stdDeviation="1"/>
<feComposite in2="SourceAlpha" operator="in" result="effect1_backgroundBlur"/>
<feBlend mode="normal" in="SourceGraphic" in2="effect1_backgroundBlur" result="shape"/>
<feColorMatrix in="SourceAlpha" type="matrix" values="0 0 0 0 0 0 0 0 0 0 0 0 0 0 0 0 0 0 127 0" result="hardAlpha"/>
<feOffset dy="4"/>
<feGaussianBlur stdDeviation="2"/>
<feComposite in2="hardAlpha" operator="arithmetic" k2="-1" k3="1"/>
<feColorMatrix type="matrix" values="0 0 0 0 1 0 0 0 0 1 0 0 0 0 1 0 0 0 0.15 0"/>
<feBlend mode="normal" in2="shape" result="effect2_innerShadow"/>
<feColorMatrix in="SourceAlpha" type="matrix" values="0 0 0 0 0 0 0 0 0 0 0 0 0 0 0 0 0 0 127 0" result="hardAlpha"/>
<feOffset/>
<feGaussianBlur stdDeviation="6"/>
<feComposite in2="hardAlpha" operator="arithmetic" k2="-1" k3="1"/>
<feColorMatrix type="matrix" values="0 0 0 0 1 0 0 0 0 1 0 0 0 0 1 0 0 0 0.7 0"/>
<feBlend mode="normal" in2="effect2_innerShadow" result="effect3_innerShadow"/>
</filter>
</defs>
</svg>
