<svg width="200" height="200" viewBox="0 0 200 200" fill="none" xmlns="http://www.w3.org/2000/svg">
<rect width="200" height="200" fill="white"/>
<rect x="28.0741" y="16" width="160" height="160" rx="80" fill="#B1E4DD"/>
<path d="M140.335 82.3493L128.004 76.5609L142.989 48.9207C144.112 46.8502 146.658 46.0193 148.786 47.0291C150.845 48.0066 151.827 50.3872 151.056 52.5325L140.335 82.3493Z" fill="white"/>
<path d="M146.643 104.119L107.493 86.8818C111.727 80.8085 119.661 78.5707 126.445 81.5363L138.358 86.7441C145.055 89.6714 148.584 97.073 146.643 104.119Z" fill="white"/>
<path fill-rule="evenodd" clip-rule="evenodd" d="M109.129 94.8069C110.472 95.5747 111.142 95.9394 112.778 96.8202C112.274 98.9594 110.004 101.602 109.38 102.231C98.2841 113.431 86.2782 118.001 76.3714 120.038C77.6085 121.355 79.1884 122.833 81.1822 124.378C88.0486 129.697 100.014 135.95 120.184 138.958C120.334 138.683 120.494 138.39 120.662 138.082C121.892 135.827 123.56 132.741 125.317 129.41C128.9 122.615 132.63 115.212 133.946 111.589L135.535 107.213L144.287 110.392L142.698 114.768C141.12 119.114 137.048 127.126 133.553 133.753C131.771 137.134 130.081 140.26 128.837 142.541C128.215 143.681 127.704 144.612 127.348 145.258C127.17 145.581 127.03 145.833 126.935 146.005C126.888 146.09 126.851 146.156 126.826 146.201L126.788 146.27C126.788 146.27 126.788 146.27 122.719 144.008L126.788 146.27C125.863 147.933 124.019 148.866 122.132 148.626C98.6486 145.642 84.1838 138.482 75.4795 131.739C71.1399 128.377 68.2832 125.158 66.4782 122.693C65.5769 121.463 64.9409 120.425 64.5144 119.657C64.3012 119.272 64.1404 118.956 64.0251 118.716C63.9674 118.597 63.9211 118.496 63.8853 118.416C63.8674 118.376 63.8521 118.342 63.8393 118.312C63.8329 118.297 63.8272 118.284 63.822 118.272L63.8148 118.254L63.8115 118.246C63.8099 118.243 63.8084 118.239 68.1068 116.45L63.8084 118.239C63.2265 116.841 63.361 115.247 64.169 113.966C64.977 112.685 66.3575 111.877 67.87 111.8C76.0399 111.384 91.2059 107.646 103.682 95.0533C104.624 94.1023 104.976 93.5485 105.479 92.7935C106.612 93.4227 107.367 93.8002 109.129 94.8069Z" fill="white"/>
<path d="M95.6643 120.854C95.6643 120.854 88.8694 126.643 83.4585 126.643C83.2487 129.243 83.9693 133.985 87.8626 131.173C92.3927 127.901 94.7415 123.203 95.6643 120.854Z" fill="white"/>
<path d="M117.282 123.71C117.282 123.71 106.583 133.75 97.7026 134.174C97.5624 138.462 99.1169 146.194 105.286 141.27C112.465 135.541 115.952 127.64 117.282 123.71Z" fill="white"/>
<g filter="url(#filter0_bii)">
<ellipse cx="55.8128" cy="46.9548" rx="23.7186" ry="24.5226" fill="white" fill-opacity="0.03"/>
</g>
<ellipse cx="86.8041" cy="71.4459" rx="10.0085" ry="10.3792" fill="white"/>
<circle cx="71.2353" cy="48.8344" r="6.30164" fill="white"/>
<circle cx="92.2443" cy="50.6303" r="4.07753" fill="white"/>
<g filter="url(#filter1_bii)">
<ellipse cx="79.9334" cy="83.9397" rx="13.2663" ry="14.0704" fill="white" fill-opacity="0.03"/>
</g>
<g filter="url(#filter2_bii)">
<ellipse cx="88.3756" cy="50.9748" rx="4.82412" ry="5.22613" fill="white" fill-opacity="0.03"/>
</g>
<defs>
<filter id="filter0_bii" x="17.0942" y="7.43219" width="77.4372" height="79.0452" filterUnits="userSpaceOnUse" color-interpolation-filters="sRGB">
<feFlood flood-opacity="0" result="BackgroundImageFix"/>
<feGaussianBlur in="BackgroundImage" stdDeviation="7.5"/>
<feComposite in2="SourceAlpha" operator="in" result="effect1_backgroundBlur"/>
<feBlend mode="normal" in="SourceGraphic" in2="effect1_backgroundBlur" result="shape"/>
<feColorMatrix in="SourceAlpha" type="matrix" values="0 0 0 0 0 0 0 0 0 0 0 0 0 0 0 0 0 0 127 0" result="hardAlpha"/>
<feOffset dy="4"/>
<feGaussianBlur stdDeviation="2"/>
<feComposite in2="hardAlpha" operator="arithmetic" k2="-1" k3="1"/>
<feColorMatrix type="matrix" values="0 0 0 0 1 0 0 0 0 1 0 0 0 0 1 0 0 0 0.15 0"/>
<feBlend mode="normal" in2="shape" result="effect2_innerShadow"/>
<feColorMatrix in="SourceAlpha" type="matrix" values="0 0 0 0 0 0 0 0 0 0 0 0 0 0 0 0 0 0 127 0" result="hardAlpha"/>
<feOffset/>
<feGaussianBlur stdDeviation="9"/>
<feComposite in2="hardAlpha" operator="arithmetic" k2="-1" k3="1"/>
<feColorMatrix type="matrix" values="0 0 0 0 1 0 0 0 0 1 0 0 0 0 1 0 0 0 0.7 0"/>
<feBlend mode="normal" in2="effect2_innerShadow" result="effect3_innerShadow"/>
</filter>
<filter id="filter1_bii" x="61.6671" y="64.8694" width="36.5327" height="38.1407" filterUnits="userSpaceOnUse" color-interpolation-filters="sRGB">
<feFlood flood-opacity="0" result="BackgroundImageFix"/>
<feGaussianBlur in="BackgroundImage" stdDeviation="2.5"/>
<feComposite in2="SourceAlpha" operator="in" result="effect1_backgroundBlur"/>
<feBlend mode="normal" in="SourceGraphic" in2="effect1_backgroundBlur" result="shape"/>
<feColorMatrix in="SourceAlpha" type="matrix" values="0 0 0 0 0 0 0 0 0 0 0 0 0 0 0 0 0 0 127 0" result="hardAlpha"/>
<feOffset dy="4"/>
<feGaussianBlur stdDeviation="2"/>
<feComposite in2="hardAlpha" operator="arithmetic" k2="-1" k3="1"/>
<feColorMatrix type="matrix" values="0 0 0 0 1 0 0 0 0 1 0 0 0 0 1 0 0 0 0.15 0"/>
<feBlend mode="normal" in2="shape" result="effect2_innerShadow"/>
<feColorMatrix in="SourceAlpha" type="matrix" values="0 0 0 0 0 0 0 0 0 0 0 0 0 0 0 0 0 0 127 0" result="hardAlpha"/>
<feOffset/>
<feGaussianBlur stdDeviation="9"/>
<feComposite in2="hardAlpha" operator="arithmetic" k2="-1" k3="1"/>
<feColorMatrix type="matrix" values="0 0 0 0 1 0 0 0 0 1 0 0 0 0 1 0 0 0 0.7 0"/>
<feBlend mode="normal" in2="effect2_innerShadow" result="effect3_innerShadow"/>
</filter>
<filter id="filter2_bii" x="81.5515" y="43.7487" width="13.6482" height="16.4523" filterUnits="userSpaceOnUse" color-interpolation-filters="sRGB">
<feFlood flood-opacity="0" result="BackgroundImageFix"/>
<feGaussianBlur in="BackgroundImage" stdDeviation="1"/>
<feComposite in2="SourceAlpha" operator="in" result="effect1_backgroundBlur"/>
<feBlend mode="normal" in="SourceGraphic" in2="effect1_backgroundBlur" result="shape"/>
<feColorMatrix in="SourceAlpha" type="matrix" values="0 0 0 0 0 0 0 0 0 0 0 0 0 0 0 0 0 0 127 0" result="hardAlpha"/>
<feOffset dy="4"/>
<feGaussianBlur stdDeviation="2"/>
<feComposite in2="hardAlpha" operator="arithmetic" k2="-1" k3="1"/>
<feColorMatrix type="matrix" values="0 0 0 0 1 0 0 0 0 1 0 0 0 0 1 0 0 0 0.15 0"/>
<feBlend mode="normal" in2="shape" result="effect2_innerShadow"/>
<feColorMatrix in="SourceAlpha" type="matrix" values="0 0 0 0 0 0 0 0 0 0 0 0 0 0 0 0 0 0 127 0" result="hardAlpha"/>
<feOffset/>
<feGaussianBlur stdDeviation="6"/>
<feComposite in2="hardAlpha" operator="arithmetic" k2="-1" k3="1"/>
<feColorMatrix type="matrix" values="0 0 0 0 1 0 0 0 0 1 0 0 0 0 1 0 0 0 0.7 0"/>
<feBlend mode="normal" in2="effect2_innerShadow" result="effect3_innerShadow"/>
</filter>
</defs>
</svg>
