<svg width="200" height="200" viewBox="0 0 200 200" fill="none" xmlns="http://www.w3.org/2000/svg">
<rect width="200" height="200" fill="white"/>
<rect x="26.94" y="19" width="160" height="160" rx="80" fill="#B1E4DD"/>
<g filter="url(#filter0_bii)">
<ellipse cx="40.1467" cy="88.9497" rx="22.5126" ry="24.1206" fill="white" fill-opacity="0.03"/>
</g>
<g filter="url(#filter1_bii)">
<ellipse cx="92.0656" cy="57.1909" rx="7.23618" ry="7.63819" fill="white" fill-opacity="0.03"/>
</g>
<g filter="url(#filter2_bii)">
<ellipse cx="177.694" cy="68.8493" rx="9.24623" ry="9.64824" fill="white" fill-opacity="0.03"/>
</g>
<path d="M91.0089 111.88C91.0089 111.88 52.2884 119.877 49.4525 129.626C56.6513 150.658 100.171 180.235 139.764 158.545C171.609 141.1 174.776 109.141 172.813 95.4486C166.53 93.0824 161.251 99.5017 159.397 103.007C159.397 103.007 147.945 84.9324 139.764 86.5755C139.764 86.5755 133.547 60.9424 121.44 67.515C111.754 72.7731 112.823 86.7947 114.568 93.1482C110.86 88.7664 100.498 80.7917 88.7184 83.9465C76.9387 87.1014 85.3372 103.883 91.0089 111.88Z" fill="white"/>
<path d="M108.304 74.4338C108.979 75.602 108.62 77.777 107.451 78.4515C106.283 79.1259 104.22 78.3495 103.546 77.1814C102.871 76.0133 102.925 73.3094 104.093 72.635C105.261 71.9606 107.63 73.2657 108.304 74.4338Z" fill="white"/>
<path d="M149.369 62.0193C148.954 62.4344 148 62.5283 147.584 62.1132C147.169 61.6982 147.263 60.7434 147.678 60.3284C148.093 59.9133 149.236 59.6315 149.651 60.0465C150.066 60.4616 149.784 61.6042 149.369 62.0193Z" fill="white"/>
<circle cx="68.749" cy="106.638" r="3.21608" fill="white"/>
<circle cx="143.523" cy="75.2814" r="3.21608" fill="white"/>
<circle cx="78.7993" cy="72.4674" r="2.81407" fill="white"/>
<defs>
<filter id="filter0_bii" x="2.63416" y="49.8291" width="75.0251" height="78.2412" filterUnits="userSpaceOnUse" color-interpolation-filters="sRGB">
<feFlood flood-opacity="0" result="BackgroundImageFix"/>
<feGaussianBlur in="BackgroundImage" stdDeviation="7.5"/>
<feComposite in2="SourceAlpha" operator="in" result="effect1_backgroundBlur"/>
<feBlend mode="normal" in="SourceGraphic" in2="effect1_backgroundBlur" result="shape"/>
<feColorMatrix in="SourceAlpha" type="matrix" values="0 0 0 0 0 0 0 0 0 0 0 0 0 0 0 0 0 0 127 0" result="hardAlpha"/>
<feOffset dy="4"/>
<feGaussianBlur stdDeviation="2"/>
<feComposite in2="hardAlpha" operator="arithmetic" k2="-1" k3="1"/>
<feColorMatrix type="matrix" values="0 0 0 0 1 0 0 0 0 1 0 0 0 0 1 0 0 0 0.15 0"/>
<feBlend mode="normal" in2="shape" result="effect2_innerShadow"/>
<feColorMatrix in="SourceAlpha" type="matrix" values="0 0 0 0 0 0 0 0 0 0 0 0 0 0 0 0 0 0 127 0" result="hardAlpha"/>
<feOffset/>
<feGaussianBlur stdDeviation="9"/>
<feComposite in2="hardAlpha" operator="arithmetic" k2="-1" k3="1"/>
<feColorMatrix type="matrix" values="0 0 0 0 1 0 0 0 0 1 0 0 0 0 1 0 0 0 0.7 0"/>
<feBlend mode="normal" in2="effect2_innerShadow" result="effect3_innerShadow"/>
</filter>
<filter id="filter1_bii" x="79.8294" y="44.5527" width="24.4724" height="25.2764" filterUnits="userSpaceOnUse" color-interpolation-filters="sRGB">
<feFlood flood-opacity="0" result="BackgroundImageFix"/>
<feGaussianBlur in="BackgroundImage" stdDeviation="2.5"/>
<feComposite in2="SourceAlpha" operator="in" result="effect1_backgroundBlur"/>
<feBlend mode="normal" in="SourceGraphic" in2="effect1_backgroundBlur" result="shape"/>
<feColorMatrix in="SourceAlpha" type="matrix" values="0 0 0 0 0 0 0 0 0 0 0 0 0 0 0 0 0 0 127 0" result="hardAlpha"/>
<feOffset dy="4"/>
<feGaussianBlur stdDeviation="2"/>
<feComposite in2="hardAlpha" operator="arithmetic" k2="-1" k3="1"/>
<feColorMatrix type="matrix" values="0 0 0 0 1 0 0 0 0 1 0 0 0 0 1 0 0 0 0.15 0"/>
<feBlend mode="normal" in2="shape" result="effect2_innerShadow"/>
<feColorMatrix in="SourceAlpha" type="matrix" values="0 0 0 0 0 0 0 0 0 0 0 0 0 0 0 0 0 0 127 0" result="hardAlpha"/>
<feOffset/>
<feGaussianBlur stdDeviation="9"/>
<feComposite in2="hardAlpha" operator="arithmetic" k2="-1" k3="1"/>
<feColorMatrix type="matrix" values="0 0 0 0 1 0 0 0 0 1 0 0 0 0 1 0 0 0 0.7 0"/>
<feBlend mode="normal" in2="effect2_innerShadow" result="effect3_innerShadow"/>
</filter>
<filter id="filter2_bii" x="163.448" y="54.201" width="28.4925" height="29.2965" filterUnits="userSpaceOnUse" color-interpolation-filters="sRGB">
<feFlood flood-opacity="0" result="BackgroundImageFix"/>
<feGaussianBlur in="BackgroundImage" stdDeviation="2.5"/>
<feComposite in2="SourceAlpha" operator="in" result="effect1_backgroundBlur"/>
<feBlend mode="normal" in="SourceGraphic" in2="effect1_backgroundBlur" result="shape"/>
<feColorMatrix in="SourceAlpha" type="matrix" values="0 0 0 0 0 0 0 0 0 0 0 0 0 0 0 0 0 0 127 0" result="hardAlpha"/>
<feOffset dy="4"/>
<feGaussianBlur stdDeviation="2"/>
<feComposite in2="hardAlpha" operator="arithmetic" k2="-1" k3="1"/>
<feColorMatrix type="matrix" values="0 0 0 0 1 0 0 0 0 1 0 0 0 0 1 0 0 0 0.15 0"/>
<feBlend mode="normal" in2="shape" result="effect2_innerShadow"/>
<feColorMatrix in="SourceAlpha" type="matrix" values="0 0 0 0 0 0 0 0 0 0 0 0 0 0 0 0 0 0 127 0" result="hardAlpha"/>
<feOffset/>
<feGaussianBlur stdDeviation="9"/>
<feComposite in2="hardAlpha" operator="arithmetic" k2="-1" k3="1"/>
<feColorMatrix type="matrix" values="0 0 0 0 1 0 0 0 0 1 0 0 0 0 1 0 0 0 0.7 0"/>
<feBlend mode="normal" in2="effect2_innerShadow" result="effect3_innerShadow"/>
</filter>
</defs>
</svg>
