<svg width="200" height="200" viewBox="0 0 200 200" fill="none" xmlns="http://www.w3.org/2000/svg">
<rect x="0.574081" width="199" height="199" rx="99.5" fill="#B1E4DD"/>
<g filter="url(#filter0_bii)">
<path d="M95.4639 110.394C109.094 131.227 106.781 162.565 96.8055 180.789C72.8246 187.231 33.6513 180.586 20.021 159.753C6.39063 138.92 7.02937 105.712 19.7223 86.9443C41.9566 80.2068 81.8335 89.5606 95.4639 110.394Z" fill="white" fill-opacity="0.03"/>
</g>
<g filter="url(#filter1_bii)">
<path d="M136.985 74.3576C127.63 88.6556 129.218 110.164 136.064 122.671C152.522 127.092 179.408 122.532 188.762 108.234C198.117 93.9359 197.679 71.1447 188.967 58.264C173.708 53.64 146.339 60.0596 136.985 74.3576Z" fill="white" fill-opacity="0.03"/>
</g>
<g filter="url(#filter2_bii)">
<path d="M96.6094 21.5739C89.2575 32.8108 90.5053 49.7144 95.8857 59.5438C108.821 63.0188 129.95 59.4346 137.302 48.1977C144.654 36.9607 144.309 19.0488 137.463 8.92575C125.47 5.29165 103.961 10.3369 96.6094 21.5739Z" fill="white" fill-opacity="0.03"/>
</g>
<g opacity="0.4" filter="url(#filter3_bii)">
<path fill-rule="evenodd" clip-rule="evenodd" d="M140.298 8.55269C140.755 9.16308 140.632 10.029 140.022 10.4868C135.741 13.7008 130.611 19.1987 125.899 24.8425C125.392 25.4496 123.447 27.7505 123.091 28.2623C122.656 28.8886 113.268 40.4237 112.642 39.988C111.59 38.3934 123.138 23.8403 123.781 23.0706C128.515 17.4013 133.814 11.6936 138.366 8.27638C138.975 7.81859 139.841 7.9423 140.298 8.55269Z" fill="#E4F3F1" fill-opacity="0.59"/>
</g>
<g opacity="0.4" filter="url(#filter4_bii)">
<path fill-rule="evenodd" clip-rule="evenodd" d="M187.481 66.4365C186.659 66.0044 185.64 66.3178 185.205 67.1365C182.15 72.8841 176.506 80.0843 170.608 86.8129C169.974 87.5366 167.574 90.3077 167.025 90.8319C166.354 91.4735 154.253 104.933 154.896 105.601C157.016 106.558 172.339 89.9326 173.144 89.0151C179.068 82.2562 184.932 74.8124 188.181 68.7013C188.616 67.8826 188.302 66.8686 187.481 66.4365Z" fill="#E4F3F1" fill-opacity="0.59"/>
</g>
<g opacity="0.4" filter="url(#filter5_bii)">
<path fill-rule="evenodd" clip-rule="evenodd" d="M7.05729 91.9499C6.25692 92.999 6.47319 94.4874 7.54036 95.2742C15.0326 100.798 24.0087 110.248 32.256 119.948C33.1432 120.992 36.5463 124.946 37.1688 125.826C37.9305 126.902 54.3605 146.728 55.4556 145.979C57.2967 143.239 37.0872 118.225 35.9625 116.903C27.6781 107.159 18.4048 97.3484 10.4388 91.475C9.37162 90.6882 7.85767 90.9008 7.05729 91.9499Z" fill="#E4F3F1" fill-opacity="0.59"/>
</g>
<path fill-rule="evenodd" clip-rule="evenodd" d="M94.5281 160.88V199.272H103.587V185.773L124.336 164.631L143.113 145.498C144.271 144.318 144.472 142.5 143.601 141.095C142.374 139.117 139.617 138.814 137.989 140.477L103.587 175.632V126.086L130.154 98.4224C131.205 97.3275 131.188 95.5926 130.114 94.5191C129.021 93.4262 127.248 93.4308 126.161 94.5293L103.581 117.341C103.581 103.277 97.6882 90.6319 87.3263 81.1217L72.575 70.1596C71.3731 69.2664 69.7392 69.2263 68.4949 70.0593C66.5061 71.3907 66.3846 74.2712 68.2543 75.7653L80.0602 85.1999C89.2798 93.6617 94.5281 105.602 94.5281 118.116V150.813L62.8768 117.985C61.2508 116.299 58.4695 116.605 57.2488 118.604C56.3986 119.997 56.5985 121.788 57.7346 122.959L75.1663 140.925L94.5281 160.88Z" fill="white"/>
<path d="M86.0968 84.4124V84.4124C89.3924 66.0305 72.0177 50.7043 54.1909 56.2683L51.845 57.0005" stroke="white" stroke-width="7" stroke-linecap="round" stroke-linejoin="round"/>
<path d="M112.791 111.47V111.47C109.034 91.0069 128.369 73.8806 148.228 80.0791L150.286 80.7212" stroke="white" stroke-width="7" stroke-linecap="round" stroke-linejoin="round"/>
<path d="M76.3853 135.544V135.544C81.1523 111.333 58.3004 90.8273 34.745 98.1792L32.9171 98.7497" stroke="white" stroke-width="7" stroke-linecap="round" stroke-linejoin="round"/>
<path d="M123.36 159.032V159.032C118.457 135.021 141.107 114.552 164.501 121.854L166.485 122.473" stroke="white" stroke-width="7" stroke-linecap="round" stroke-linejoin="round"/>
<path d="M85.0269 85.5493V85.5493C67.9864 90.1132 51.2542 77.2721 51.2548 59.631L51.2549 57.5485" stroke="white" stroke-width="7" stroke-linecap="round" stroke-linejoin="round"/>
<path d="M113.686 112.211V112.211C132.482 117.245 150.938 103.081 150.937 83.6223L150.937 81.3252" stroke="white" stroke-width="7" stroke-linecap="round" stroke-linejoin="round"/>
<path d="M76.1325 135.931V135.931C53.9393 141.875 32.1474 125.151 32.1483 102.176L32.1484 99.4632" stroke="white" stroke-width="7" stroke-linecap="round" stroke-linejoin="round"/>
<path d="M123.269 159.654V159.654C145.462 165.598 167.254 148.874 167.253 125.899L167.253 123.187" stroke="white" stroke-width="7" stroke-linecap="round" stroke-linejoin="round"/>
<defs>
<filter id="filter0_bii" x="-20" y="54.7842" width="154.99" height="158.367" filterUnits="userSpaceOnUse" color-interpolation-filters="sRGB">
<feFlood flood-opacity="0" result="BackgroundImageFix"/>
<feGaussianBlur in="BackgroundImage" stdDeviation="15"/>
<feComposite in2="SourceAlpha" operator="in" result="effect1_backgroundBlur"/>
<feBlend mode="normal" in="SourceGraphic" in2="effect1_backgroundBlur" result="shape"/>
<feColorMatrix in="SourceAlpha" type="matrix" values="0 0 0 0 0 0 0 0 0 0 0 0 0 0 0 0 0 0 127 0" result="hardAlpha"/>
<feOffset/>
<feGaussianBlur stdDeviation="9"/>
<feComposite in2="hardAlpha" operator="arithmetic" k2="-1" k3="1"/>
<feColorMatrix type="matrix" values="0 0 0 0 0.946563 0 0 0 0 0.975 0 0 0 0 0.971097 0 0 0 0.7 0"/>
<feBlend mode="normal" in2="shape" result="effect2_innerShadow"/>
<feColorMatrix in="SourceAlpha" type="matrix" values="0 0 0 0 0 0 0 0 0 0 0 0 0 0 0 0 0 0 127 0" result="hardAlpha"/>
<feOffset dy="4"/>
<feGaussianBlur stdDeviation="2"/>
<feComposite in2="hardAlpha" operator="arithmetic" k2="-1" k3="1"/>
<feColorMatrix type="matrix" values="0 0 0 0 1 0 0 0 0 1 0 0 0 0 1 0 0 0 0.15 0"/>
<feBlend mode="normal" in2="effect2_innerShadow" result="effect3_innerShadow"/>
</filter>
<filter id="filter1_bii" x="100.446" y="26.7815" width="125.193" height="127.511" filterUnits="userSpaceOnUse" color-interpolation-filters="sRGB">
<feFlood flood-opacity="0" result="BackgroundImageFix"/>
<feGaussianBlur in="BackgroundImage" stdDeviation="15"/>
<feComposite in2="SourceAlpha" operator="in" result="effect1_backgroundBlur"/>
<feBlend mode="normal" in="SourceGraphic" in2="effect1_backgroundBlur" result="shape"/>
<feColorMatrix in="SourceAlpha" type="matrix" values="0 0 0 0 0 0 0 0 0 0 0 0 0 0 0 0 0 0 127 0" result="hardAlpha"/>
<feOffset/>
<feGaussianBlur stdDeviation="9"/>
<feComposite in2="hardAlpha" operator="arithmetic" k2="-1" k3="1"/>
<feColorMatrix type="matrix" values="0 0 0 0 0.946563 0 0 0 0 0.975 0 0 0 0 0.971097 0 0 0 0.7 0"/>
<feBlend mode="normal" in2="shape" result="effect2_innerShadow"/>
<feColorMatrix in="SourceAlpha" type="matrix" values="0 0 0 0 0 0 0 0 0 0 0 0 0 0 0 0 0 0 127 0" result="hardAlpha"/>
<feOffset dy="4"/>
<feGaussianBlur stdDeviation="2"/>
<feComposite in2="hardAlpha" operator="arithmetic" k2="-1" k3="1"/>
<feColorMatrix type="matrix" values="0 0 0 0 1 0 0 0 0 1 0 0 0 0 1 0 0 0 0.15 0"/>
<feBlend mode="normal" in2="effect2_innerShadow" result="effect3_innerShadow"/>
</filter>
<filter id="filter2_bii" x="61.4709" y="-22.2394" width="111.236" height="113.057" filterUnits="userSpaceOnUse" color-interpolation-filters="sRGB">
<feFlood flood-opacity="0" result="BackgroundImageFix"/>
<feGaussianBlur in="BackgroundImage" stdDeviation="15"/>
<feComposite in2="SourceAlpha" operator="in" result="effect1_backgroundBlur"/>
<feBlend mode="normal" in="SourceGraphic" in2="effect1_backgroundBlur" result="shape"/>
<feColorMatrix in="SourceAlpha" type="matrix" values="0 0 0 0 0 0 0 0 0 0 0 0 0 0 0 0 0 0 127 0" result="hardAlpha"/>
<feOffset/>
<feGaussianBlur stdDeviation="9"/>
<feComposite in2="hardAlpha" operator="arithmetic" k2="-1" k3="1"/>
<feColorMatrix type="matrix" values="0 0 0 0 0.946563 0 0 0 0 0.975 0 0 0 0 0.971097 0 0 0 0.7 0"/>
<feBlend mode="normal" in2="shape" result="effect2_innerShadow"/>
<feColorMatrix in="SourceAlpha" type="matrix" values="0 0 0 0 0 0 0 0 0 0 0 0 0 0 0 0 0 0 127 0" result="hardAlpha"/>
<feOffset dy="4"/>
<feGaussianBlur stdDeviation="2"/>
<feComposite in2="hardAlpha" operator="arithmetic" k2="-1" k3="1"/>
<feColorMatrix type="matrix" values="0 0 0 0 1 0 0 0 0 1 0 0 0 0 1 0 0 0 0.15 0"/>
<feBlend mode="normal" in2="effect2_innerShadow" result="effect3_innerShadow"/>
</filter>
<filter id="filter3_bii" x="108.574" y="4" width="36" height="40" filterUnits="userSpaceOnUse" color-interpolation-filters="sRGB">
<feFlood flood-opacity="0" result="BackgroundImageFix"/>
<feGaussianBlur in="BackgroundImage" stdDeviation="2"/>
<feComposite in2="SourceAlpha" operator="in" result="effect1_backgroundBlur"/>
<feBlend mode="normal" in="SourceGraphic" in2="effect1_backgroundBlur" result="shape"/>
<feColorMatrix in="SourceAlpha" type="matrix" values="0 0 0 0 0 0 0 0 0 0 0 0 0 0 0 0 0 0 127 0" result="hardAlpha"/>
<feOffset dy="4"/>
<feGaussianBlur stdDeviation="2"/>
<feComposite in2="hardAlpha" operator="arithmetic" k2="-1" k3="1"/>
<feColorMatrix type="matrix" values="0 0 0 0 1 0 0 0 0 1 0 0 0 0 1 0 0 0 0.05 0"/>
<feBlend mode="normal" in2="shape" result="effect2_innerShadow"/>
<feColorMatrix in="SourceAlpha" type="matrix" values="0 0 0 0 0 0 0 0 0 0 0 0 0 0 0 0 0 0 127 0" result="hardAlpha"/>
<feOffset/>
<feGaussianBlur stdDeviation="7.5"/>
<feComposite in2="hardAlpha" operator="arithmetic" k2="-1" k3="1"/>
<feColorMatrix type="matrix" values="0 0 0 0 1 0 0 0 0 1 0 0 0 0 1 0 0 0 0.15 0"/>
<feBlend mode="normal" in2="effect2_innerShadow" result="effect3_innerShadow"/>
</filter>
<filter id="filter4_bii" x="145.574" y="62" width="51.8403" height="47.6843" filterUnits="userSpaceOnUse" color-interpolation-filters="sRGB">
<feFlood flood-opacity="0" result="BackgroundImageFix"/>
<feGaussianBlur in="BackgroundImage" stdDeviation="2"/>
<feComposite in2="SourceAlpha" operator="in" result="effect1_backgroundBlur"/>
<feBlend mode="normal" in="SourceGraphic" in2="effect1_backgroundBlur" result="shape"/>
<feColorMatrix in="SourceAlpha" type="matrix" values="0 0 0 0 0 0 0 0 0 0 0 0 0 0 0 0 0 0 127 0" result="hardAlpha"/>
<feOffset dy="4"/>
<feGaussianBlur stdDeviation="2"/>
<feComposite in2="hardAlpha" operator="arithmetic" k2="-1" k3="1"/>
<feColorMatrix type="matrix" values="0 0 0 0 1 0 0 0 0 1 0 0 0 0 1 0 0 0 0.05 0"/>
<feBlend mode="normal" in2="shape" result="effect2_innerShadow"/>
<feColorMatrix in="SourceAlpha" type="matrix" values="0 0 0 0 0 0 0 0 0 0 0 0 0 0 0 0 0 0 127 0" result="hardAlpha"/>
<feOffset/>
<feGaussianBlur stdDeviation="7.5"/>
<feComposite in2="hardAlpha" operator="arithmetic" k2="-1" k3="1"/>
<feColorMatrix type="matrix" values="0 0 0 0 1 0 0 0 0 1 0 0 0 0 1 0 0 0 0.15 0"/>
<feBlend mode="normal" in2="effect2_innerShadow" result="effect3_innerShadow"/>
</filter>
<filter id="filter5_bii" x="2.57408" y="87" width="57" height="63" filterUnits="userSpaceOnUse" color-interpolation-filters="sRGB">
<feFlood flood-opacity="0" result="BackgroundImageFix"/>
<feGaussianBlur in="BackgroundImage" stdDeviation="2"/>
<feComposite in2="SourceAlpha" operator="in" result="effect1_backgroundBlur"/>
<feBlend mode="normal" in="SourceGraphic" in2="effect1_backgroundBlur" result="shape"/>
<feColorMatrix in="SourceAlpha" type="matrix" values="0 0 0 0 0 0 0 0 0 0 0 0 0 0 0 0 0 0 127 0" result="hardAlpha"/>
<feOffset dy="4"/>
<feGaussianBlur stdDeviation="2"/>
<feComposite in2="hardAlpha" operator="arithmetic" k2="-1" k3="1"/>
<feColorMatrix type="matrix" values="0 0 0 0 1 0 0 0 0 1 0 0 0 0 1 0 0 0 0.05 0"/>
<feBlend mode="normal" in2="shape" result="effect2_innerShadow"/>
<feColorMatrix in="SourceAlpha" type="matrix" values="0 0 0 0 0 0 0 0 0 0 0 0 0 0 0 0 0 0 127 0" result="hardAlpha"/>
<feOffset/>
<feGaussianBlur stdDeviation="7.5"/>
<feComposite in2="hardAlpha" operator="arithmetic" k2="-1" k3="1"/>
<feColorMatrix type="matrix" values="0 0 0 0 1 0 0 0 0 1 0 0 0 0 1 0 0 0 0.15 0"/>
<feBlend mode="normal" in2="effect2_innerShadow" result="effect3_innerShadow"/>
</filter>
</defs>
</svg>
