<svg id="Capa_1" enable-background="new 0 0 512 512" height="512" viewBox="0 0 512 512" width="512" xmlns="http://www.w3.org/2000/svg"><path d="m512 256c0 45.976-12.121 89.119-33.343 126.412-27.512 48.358-70.322 86.883-121.856 108.972-30.929 13.27-65.003 20.616-100.801 20.616-84.072 0-158.668-40.521-205.343-103.1-12.915-17.324-23.698-36.331-31.943-56.644-12.068-29.717-18.714-62.213-18.714-96.256s6.646-66.539 18.714-96.256c20.365-50.145 56.163-92.379 101.501-120.801 39.362-24.68 85.902-38.943 135.785-38.943 141.385 0 256 114.615 256 256z" fill="#5c5560"/><path d="m478.657 151.019v231.393c-27.512 48.358-70.322 86.883-121.856 108.972h-84.376l-17.68-369.957h194.32c16.343.001 29.592 13.25 29.592 29.592z" fill="#e6e6e6"/><path d="m478.657 335.726v46.686c-27.512 48.358-70.322 86.883-121.856 108.972h-84.376l-17.68-369.957h9.613z" fill="#ccc"/><path d="m447.387 253.73v-19.008h-83.95v-29.302h-26.135v29.303h-48.311v19.008h102.165s-9.872 27.21-31.077 54.622c-21.397-24.995-22.778-33.239-22.778-33.239h-22.175c3.335 12.506 16.33 30.476 31.789 48.532-11.216 11.663-24.672 22.387-40.5 29.874-58.606 27.719 1.584 22.175 1.584 22.175 20.885-8.794 38.286-22.106 52.536-36.746 25.483 27.66 52.005 51.793 52.005 51.793l13.464-15.84c-22.645-20.854-39.518-37.674-52.088-51.131 27.521-34.368 39.417-70.042 39.417-70.042h34.055v.001z" fill="#648190"/><path d="m349.919 408.895-77.49 82.489-39.743-119.444z" fill="#3a5bbc"/><path d="m349.915 408.9h-299.258c-12.915-17.324-23.698-36.331-31.943-56.644v-283.732c0-16.332 13.239-29.581 29.581-29.581h179.137l27.314 82.484 40.97 123.737 36.801 111.198z" fill="#518ef8"/><path d="m222.548 208.783h-29.775-38.643v28.179h38.088c-3.428 9.15-9.937 16.794-18.265 21.677-6.274 3.683-13.585 5.792-21.388 5.792-18.155 0-33.642-11.428-39.657-27.482-1.738-4.622-2.684-9.632-2.684-14.861 0-4.818.807-9.448 2.285-13.76 5.714-16.63 21.49-28.581 40.056-28.581 8.222 0 15.897 2.345 22.39 6.403l23.074-18.892c-12.336-10.242-28.182-16.399-45.465-16.399-27.529 0-51.41 15.616-63.264 38.471-5.092 9.807-7.964 20.946-7.964 32.758 0 12.215 3.072 23.709 8.489 33.755 12.031 22.312 35.614 37.473 62.74 37.473 16.879 0 32.386-5.87 44.592-15.682 12.551-10.09 21.612-24.347 25.079-40.675 1.022-4.798 1.558-9.773 1.558-14.872-.002-4.546-.429-8.996-1.246-13.304z" fill="#efefef"/></svg>