<svg width="51" height="52" viewBox="0 0 51 52" fill="none" xmlns="http://www.w3.org/2000/svg">
<g clip-path="url(#clip0)">
<path d="M50.5623 9.20676L48.0721 6.6677C47.7919 6.38201 47.4119 6.22144 47.0156 6.22144H45.1096C44.9029 2.76994 42.0847 0.026123 38.6484 0.026123H12.3516C8.91534 0.026123 6.09709 2.76994 5.8904 6.22144H3.98438C3.58803 6.22144 3.20802 6.38201 2.92792 6.6677L0.437684 9.20676C0.157383 9.49246 0 9.87992 0 10.2839V17.9011C0 18.7425 0.668977 19.4246 1.49414 19.4246C2.3193 19.4246 2.98828 18.7425 2.98828 17.9011V10.9149L4.60325 9.26831H5.87695V27.6397C12.0633 28.8886 39.1101 28.8535 45.123 27.6397V9.26831H46.3968L48.0117 10.9149V17.9011C48.0117 18.7425 48.6807 19.4246 49.5059 19.4246C50.331 19.4246 51 18.7425 51 17.9011V10.2839C51 9.87992 50.8426 9.49246 50.5623 9.20676V9.20676Z" fill="white"/>
<path d="M7.57031 48.8171V49.4357C7.57031 50.8362 8.68693 51.9747 10.0605 51.9747H14.7422C16.1158 51.9747 17.2324 50.8362 17.2324 49.4357V48.8771C7.88976 48.8568 8.2629 48.9227 7.57031 48.8171Z" fill="white"/>
<path d="M33.7676 48.8771V49.4357C33.7676 50.8362 34.8842 51.9747 36.2578 51.9747H40.9395C42.3131 51.9747 43.4297 50.8362 43.4297 49.4357V48.8171C42.7372 48.9227 43.1111 48.8568 33.7676 48.8771Z" fill="white"/>
<path d="M5.87695 30.7329V36.3674L15.2962 38.0321C15.845 38.1291 16.2951 38.5292 16.4645 39.07L18.5805 45.8301H32.4198L34.5358 39.07C34.7051 38.529 35.1553 38.1291 35.7041 38.0321L45.123 36.3674V30.7329C37.9264 31.9043 13.0773 31.9048 5.87695 30.7329V30.7329ZM29.9824 38.2128H21.0176C20.1924 38.2128 19.5234 37.5307 19.5234 36.6893C19.5234 35.848 20.1924 35.1659 21.0176 35.1659H29.9824C30.8076 35.1659 31.4766 35.848 31.4766 36.6893C31.4766 37.5307 30.8076 38.2128 29.9824 38.2128Z" fill="white"/>
<path d="M35.5564 45.8299H42.6328C44.006 45.8299 45.1231 44.6909 45.1231 43.2908V39.4596L37.1069 40.8763L35.5564 45.8299Z" fill="white"/>
<path d="M15.4436 45.8299L13.8931 40.8763L5.87695 39.4596V43.2908C5.87695 44.6909 6.99407 45.8299 8.36719 45.8299H15.4436Z" fill="white"/>
</g>
<defs>
<clipPath id="clip0">
<rect width="51" height="52" fill="white"/>
</clipPath>
</defs>
</svg>
