<svg width="97" height="97" viewBox="0 0 97 97" fill="none" xmlns="http://www.w3.org/2000/svg">
<path d="M82.8493 10.9803H80.013V80.6612C80.013 85.2903 76.2449 89.0583 71.6158 89.0583H42.8783H20.0261V91.6414C20.0261 94.5993 22.4268 96.9999 25.3846 96.9999H54.1119H82.8392C85.797 96.9999 88.1976 94.5993 88.1976 91.6414V16.3388C88.1977 13.381 85.8071 10.9803 82.8493 10.9803Z" fill="white"/>
<path d="M42.8784 86.0195H71.6056C74.5635 86.0195 76.9641 83.6189 76.9641 80.6612V10.9804V5.3585C76.9641 2.40069 74.5635 0 71.6056 0H42.8784H33.3263V1.77266C33.3464 1.95499 33.3566 2.14745 33.3566 2.33991V14.0192V17.0175C33.3566 21.1808 29.9734 24.564 25.8102 24.564H22.8118H11.1325C10.9806 24.564 10.8185 24.5539 10.6666 24.5438H8.80273V80.6612C8.80273 83.6189 11.2034 86.0195 14.1612 86.0195H20.0364H42.8784ZM43.9622 67.8068H25.2328C23.8349 67.8068 22.7004 66.6722 22.7004 65.2744C22.7004 63.8765 23.8349 62.7421 25.2328 62.7421H43.9724C45.3702 62.7421 46.5047 63.8765 46.5047 65.2744C46.5047 66.6722 45.3601 67.8068 43.9622 67.8068ZM62.7018 54.8817H25.2328C23.8349 54.8817 22.7004 53.7471 22.7004 52.3493C22.7004 50.9513 23.8349 49.8169 25.2328 49.8169H62.7018C64.0997 49.8169 65.2342 50.9513 65.2342 52.3493C65.2342 53.7471 64.0997 54.8817 62.7018 54.8817ZM25.2328 36.0914H62.7018C64.0997 36.0914 65.2342 37.2259 65.2342 38.6237C65.2342 40.0216 64.0997 41.1561 62.7018 41.1561H25.2328C23.8349 41.1561 22.7004 40.0216 22.7004 38.6237C22.7004 37.2259 23.8349 36.0914 25.2328 36.0914Z" fill="white"/>
<path d="M11.1318 21.5242H25.8094C25.8195 21.5242 25.8398 21.5242 25.8499 21.5242C28.3013 21.5039 30.2866 19.5186 30.3069 17.0672C30.3069 17.0571 30.3069 17.0368 30.3069 17.0267V2.33895C30.3069 0.981603 29.1927 0.0800781 28.038 0.0800781C27.4809 0.0800781 26.9238 0.282668 26.4578 0.748624L9.53132 17.675C8.11319 19.0931 9.11601 21.5242 11.1318 21.5242Z" fill="white"/>
</svg>
