<svg width="52" height="52" viewBox="0 0 52 52" fill="none" xmlns="http://www.w3.org/2000/svg">
<path d="M31.018 25.7278C38.1111 25.7278 43.8809 19.957 43.8809 12.8639C43.8809 5.77078 38.1111 0 31.018 0C23.9248 0 18.1541 5.77078 18.1541 12.8639C18.1541 19.957 23.9248 25.7278 31.018 25.7278ZM29.4945 5.30258V4.9532C29.4945 4.11125 30.176 3.42977 31.018 3.42977C31.8589 3.42977 32.5414 4.11125 32.5414 4.9532V5.30461C34.3543 5.69359 35.7183 7.30844 35.7183 9.23609C35.7183 10.077 35.0358 10.7595 34.1948 10.7595C33.3529 10.7595 32.6714 10.077 32.6714 9.23609C32.6714 8.69883 32.2337 8.26109 31.6964 8.26109H30.3304C29.7931 8.26109 29.3554 8.69883 29.3554 9.23609C29.3554 9.54383 29.5026 9.83633 29.7505 10.0191L31.018 10.9576L34.0973 13.2366C35.1089 13.9852 35.7183 15.1826 35.7264 16.442V16.4562C35.7335 17.5307 35.3222 18.5443 34.5666 19.3091C34.0059 19.8768 33.3052 20.2577 32.5414 20.4181V20.7746C32.5414 21.6166 31.8589 22.298 31.018 22.298C30.176 22.298 29.4945 21.6166 29.4945 20.7746V20.4232C28.7511 20.2648 28.0676 19.8991 27.5151 19.3527C26.7503 18.5981 26.3258 17.5906 26.3197 16.5161C26.3146 15.6752 26.992 14.9886 27.833 14.9835H27.8431C28.68 14.9835 29.3615 15.6599 29.3666 16.4978C29.3686 17.0236 29.7916 17.4667 30.3466 17.4667C31.1884 17.4616 30.8749 17.4635 31.7106 17.4586C32.2513 17.4543 32.6837 17.0155 32.6795 16.4765V16.4623C32.6775 16.1576 32.5302 15.8671 32.2844 15.6853L31.018 14.7479L27.9376 12.4688C26.9179 11.7132 26.3085 10.5046 26.3085 9.23609C26.3085 7.30438 27.6766 5.68852 29.4945 5.30258V5.30258Z" fill="white"/>
<path d="M10.1751 33.0477C9.78458 32.3706 8.91714 32.1351 8.23596 32.5281L1.06991 36.6647C0.39137 37.0574 0.158588 37.9253 0.550315 38.6048L7.87439 51.2901C8.26642 51.9684 9.13377 52.2014 9.81353 51.8097L16.9796 47.672C17.6591 47.2802 17.891 46.4124 17.4992 45.7329L10.1751 33.0477Z" fill="white"/>
<path d="M51.2359 30.5155C50.5463 29.5578 49.2118 29.3415 48.2551 30.0311C45.3524 32.1223 39.7787 36.138 39.3358 36.458C39.1317 36.6316 38.9174 36.7891 38.694 36.9282C37.8175 37.4797 36.8008 37.7742 35.7395 37.7742H28.4423C27.6013 37.7742 26.9188 37.0927 26.9188 36.2508C26.9188 35.4078 27.6023 34.7273 28.4423 34.7273H36.2463C37.393 34.7273 38.3111 33.7727 38.2633 32.624C38.2187 31.5342 37.2883 30.6892 36.1976 30.6892H30.2572C29.855 30.2637 29.4142 29.8737 28.9419 29.5253C27.318 28.3279 25.3111 27.62 23.1387 27.62C19.2762 27.62 15.4331 30.0534 13.8396 33.3014L20.0715 44.0944H31.7613C34.0566 44.0944 36.3174 43.5074 38.307 42.3628C38.9966 41.9667 39.735 41.4904 40.5353 40.9155C43.8889 38.5065 50.7454 33.5015 50.7505 33.4984C51.7092 32.8098 51.9265 31.4733 51.2359 30.5155V30.5155Z" fill="white"/>
</svg>
