<svg width="98" height="98" viewBox="0 0 98 98" fill="none" xmlns="http://www.w3.org/2000/svg">
<path d="M48.7089 27.5012C48.3634 27.4389 48.0504 27.2579 47.824 26.9896C47.5976 26.7213 47.4719 26.3823 47.4686 26.0312V22.9688C47.4717 21.4212 47.6568 19.8794 48.0198 18.375H22.6623L18.7729 35.2188H28.3433L38.6026 22.0347L41.022 23.9028L32.2173 35.2188H47.7442C47.5588 34.7297 47.4653 34.2105 47.4686 33.6875V30.625C47.4706 29.4641 47.914 28.3474 48.7089 27.5012V27.5012Z" fill="white"/>
<path d="M27.5625 70.4375C30.0996 70.4375 32.1562 68.3808 32.1562 65.8438C32.1562 63.3067 30.0996 61.25 27.5625 61.25C25.0254 61.25 22.9688 63.3067 22.9688 65.8438C22.9688 68.3808 25.0254 70.4375 27.5625 70.4375Z" fill="white"/>
<path d="M7.02844 80.5284C6.74251 80.8107 6.51542 81.1468 6.36034 81.5174C6.20526 81.888 6.12527 82.2857 6.125 82.6875C6.12742 83.499 6.45086 84.2765 7.02466 84.8503C7.59847 85.4241 8.37602 85.7476 9.1875 85.75H15.3125V90.3438C15.3125 90.7499 15.4738 91.1393 15.761 91.4265C16.0482 91.7137 16.4376 91.875 16.8438 91.875H24.5C24.9061 91.875 25.2956 91.7137 25.5828 91.4265C25.8699 91.1393 26.0312 90.7499 26.0312 90.3438V85.75H36.75V79.625H9.1875C8.78575 79.6253 8.38804 79.7053 8.01743 79.8603C7.64681 80.0154 7.31066 80.2425 7.02844 80.5284V80.5284Z" fill="white"/>
<path d="M61.25 51.3428V56.6562C61.25 57.8746 61.734 59.043 62.5955 59.9045C63.457 60.766 64.6254 61.25 65.8438 61.25C67.0621 61.25 68.2305 60.766 69.092 59.9045C69.9535 59.043 70.4375 57.8746 70.4375 56.6562V51.3428C67.4502 52.3024 64.2373 52.3024 61.25 51.3428V51.3428Z" fill="white"/>
<path d="M78.0938 36.7501C78.0938 36.3439 78.2551 35.9545 78.5422 35.6673C78.8294 35.3801 79.2189 35.2188 79.625 35.2188C80.0311 35.2188 80.4206 35.0575 80.7078 34.7703C80.9949 34.4831 81.1562 34.0937 81.1562 33.6876V30.6251C81.1562 30.2189 80.9949 29.8295 80.7078 29.5423C80.4206 29.2551 80.0311 29.0938 79.625 29.0938C79.2189 29.0938 78.8294 28.9325 78.5422 28.6453C78.2551 28.3581 78.0938 27.9687 78.0938 27.5626V24.5001H68.9062C68.5604 24.5009 68.2249 24.3818 67.9569 24.1632L65.5375 22.2338C64.2688 21.216 62.7082 20.6299 61.0831 20.561C59.458 20.4922 57.8534 20.9441 56.5031 21.851L53.5938 23.7957V27.5626C53.5938 27.9687 53.4324 28.3581 53.1453 28.6453C52.8581 28.9325 52.4686 29.0938 52.0625 29.0938C51.6564 29.0938 51.2669 29.2551 50.9797 29.5423C50.6926 29.8295 50.5312 30.2189 50.5312 30.6251V33.6876C50.5312 34.0937 50.6926 34.4831 50.9797 34.7703C51.2669 35.0575 51.6564 35.2188 52.0625 35.2188C52.4686 35.2188 52.8581 35.3801 53.1453 35.6673C53.4324 35.9545 53.5938 36.3439 53.5938 36.7501C53.5938 39.999 54.8844 43.1148 57.1817 45.4121C59.479 47.7094 62.5948 49.0001 65.8438 49.0001C69.0927 49.0001 72.2085 47.7094 74.5058 45.4121C76.8031 43.1148 78.0938 39.999 78.0938 36.7501ZM59.7188 35.2188C59.113 35.2188 58.5209 35.0392 58.0173 34.7027C57.5137 34.3662 57.1212 33.8879 56.8894 33.3283C56.6576 32.7687 56.5969 32.1529 56.7151 31.5588C56.8333 30.9648 57.1249 30.4191 57.5532 29.9908C57.9815 29.5625 58.5272 29.2708 59.1213 29.1526C59.7153 29.0345 60.3311 29.0951 60.8907 29.3269C61.4503 29.5587 61.9286 29.9512 62.2651 30.4549C62.6016 30.9585 62.7812 31.5506 62.7812 32.1563C62.7788 32.9678 62.4554 33.7453 61.8816 34.3191C61.3078 34.8929 60.5302 35.2164 59.7188 35.2188V35.2188ZM71.9688 35.2188C71.363 35.2188 70.7709 35.0392 70.2673 34.7027C69.7637 34.3662 69.3712 33.8879 69.1394 33.3283C68.9076 32.7687 68.8469 32.1529 68.9651 31.5588C69.0833 30.9648 69.3749 30.4191 69.8032 29.9908C70.2315 29.5625 70.7772 29.2708 71.3713 29.1526C71.9653 29.0345 72.5811 29.0951 73.1407 29.3269C73.7003 29.5587 74.1786 29.9512 74.5151 30.4549C74.8516 30.9585 75.0312 31.5506 75.0312 32.1563C75.0288 32.9678 74.7054 33.7453 74.1316 34.3191C73.5578 34.8929 72.7802 35.2164 71.9688 35.2188V35.2188Z" fill="white"/>
<path d="M50.5312 22.9688C50.5326 22.7166 50.5961 22.4686 50.7163 22.2469C50.8366 22.0252 51.0097 21.8366 51.2203 21.6978L54.8034 19.2938C56.6956 18.0269 58.9429 17.3972 61.2178 17.4963C63.4928 17.5955 65.6768 18.4183 67.4516 19.845L69.4422 21.4375H79.625C80.0311 21.4375 80.4206 21.5989 80.7078 21.886C80.9949 22.1732 81.1562 22.5627 81.1562 22.9688V6.72222L73.99 9.11097C73.7597 9.1869 73.5147 9.20706 73.2751 9.16979C73.0355 9.13252 72.8082 9.03889 72.6119 8.89659C72.4124 8.75723 72.2497 8.57159 72.1377 8.35557C72.0257 8.13956 71.9677 7.89961 71.9688 7.65628V7.0744L68.0641 9.01909C67.831 9.13655 67.5717 9.19248 67.3109 9.18155C67.0501 9.17063 66.7964 9.09322 66.574 8.95667C66.3515 8.82013 66.1677 8.62898 66.0398 8.40139C65.912 8.17379 65.8445 7.9173 65.8438 7.65628V6.18628C61.6602 6.57517 57.7721 8.51084 54.9402 11.6147C52.1082 14.7185 50.5361 18.7672 50.5312 22.9688Z" fill="white"/>
<path d="M56.8092 6.125H35.4636L26.2761 9.1875H53.0424C54.1737 8.02265 55.438 6.99477 56.8092 6.125V6.125Z" fill="white"/>
<path d="M80.0384 59.3513L73.2856 58.3866C72.8982 60.0702 71.9513 61.5728 70.5997 62.6487C69.248 63.7247 67.5714 64.3106 65.8438 64.3106C64.1161 64.3106 62.4395 63.7247 61.0878 62.6487C59.7362 61.5728 58.7893 60.0702 58.4019 58.3866L51.6491 59.3513C48.3709 59.8349 45.3745 61.477 43.203 63.98C41.0315 66.4829 39.8286 69.6811 39.8125 72.9947V84.6628L42.875 85.7653V79.625C42.875 79.2189 43.0363 78.8294 43.3235 78.5423C43.6107 78.2551 44.0001 78.0938 44.4062 78.0938H44.8044C47.217 74.774 50.3809 72.0722 54.0376 70.2093C57.6943 68.3464 61.7399 67.3752 65.8438 67.3752C69.9476 67.3752 73.9932 68.3464 77.6499 70.2093C81.3066 72.0722 84.4706 74.774 86.8831 78.0938H87.2812C87.6874 78.0938 88.0768 78.2551 88.364 78.5423C88.6512 78.8294 88.8125 79.2189 88.8125 79.625V85.7653L91.875 84.6628V72.9947C91.8589 69.6811 90.656 66.4829 88.4845 63.98C86.313 61.477 83.3166 59.8349 80.0384 59.3513V59.3513Z" fill="white"/>
<path d="M65.8436 85.75C64.2419 85.7509 62.7046 86.3803 61.5621 87.5027C60.4196 88.6252 59.7632 90.1511 59.7339 91.7525L60.0708 91.875H71.6623L71.9533 91.7678C71.9295 90.1633 71.2753 88.6325 70.1321 87.5064C68.9888 86.3804 67.4483 85.7494 65.8436 85.75V85.75Z" fill="white"/>
<path d="M83.1009 78.2468C79.0917 73.6836 73.4361 70.8972 67.375 70.4987V82.8252C69.3129 83.1566 71.094 84.0992 72.4578 85.5154C73.8216 86.9315 74.6965 88.7468 74.9547 90.6958L80.6969 88.6593C80.011 87.8443 79.6318 86.8151 79.625 85.7499V82.6874C79.6283 81.6662 79.9719 80.6751 80.6014 79.871C81.2309 79.0668 82.1104 78.4953 83.1009 78.2468V78.2468Z" fill="white"/>
<path d="M64.3124 70.4987C58.2512 70.8972 52.5957 73.6836 48.5864 78.2468C49.577 78.4953 50.4565 79.0668 51.086 79.871C51.7155 80.6751 52.059 81.6662 52.0624 82.6874V85.7499C52.0565 86.8079 51.683 87.831 51.0058 88.644L56.7327 90.6958C56.9911 88.7469 57.8661 86.9317 59.2298 85.5156C60.5936 84.0995 62.3745 83.1568 64.3124 82.8252V70.4987Z" fill="white"/>
<path d="M47.4688 81.1562H45.9375V86.8525L47.1625 87.2812H47.4688C47.8749 87.2812 48.2643 87.1199 48.5515 86.8328C48.8387 86.5456 49 86.1561 49 85.75V82.6875C49 82.2814 48.8387 81.8919 48.5515 81.6047C48.2643 81.3176 47.8749 81.1562 47.4688 81.1562Z" fill="white"/>
<path d="M43.1966 59.78C34.8972 48.02 16.2925 45.1566 10.7188 44.5441V76.5625H36.75V72.9947C36.7605 70.4488 37.3457 67.9382 38.462 65.6501C39.5782 63.3619 41.1966 61.3554 43.1966 59.78V59.78ZM15.3125 53.5938C15.3125 52.988 15.4921 52.3959 15.8286 51.8923C16.1651 51.3887 16.6434 50.9962 17.203 50.7644C17.7626 50.5326 18.3784 50.4719 18.9725 50.5901C19.5665 50.7083 20.1122 50.9999 20.5405 51.4282C20.9688 51.8565 21.2605 52.4022 21.3787 52.9963C21.4968 53.5904 21.4362 54.2061 21.2044 54.7657C20.9726 55.3253 20.5801 55.8036 20.0764 56.1401C19.5728 56.4766 18.9807 56.6563 18.375 56.6563C17.5635 56.6538 16.786 56.3304 16.2122 55.7566C15.6384 55.1828 15.3149 54.4052 15.3125 53.5938V53.5938ZM27.5625 73.5C26.0482 73.5 24.568 73.051 23.3089 72.2097C22.0499 71.3684 21.0685 70.1727 20.489 68.7737C19.9096 67.3747 19.7579 65.8353 20.0534 64.3501C20.3488 62.8649 21.078 61.5007 22.1487 60.43C23.2195 59.3592 24.5837 58.63 26.0688 58.3346C27.554 58.0392 29.0934 58.1908 30.4924 58.7703C31.8914 59.3498 33.0872 60.3311 33.9284 61.5902C34.7697 62.8492 35.2187 64.3295 35.2188 65.8438C35.2188 66.8492 35.0207 67.8448 34.636 68.7737C34.2512 69.7026 33.6872 70.5466 32.9763 71.2575C32.2653 71.9685 31.4213 72.5324 30.4924 72.9172C29.5635 73.302 28.5679 73.5 27.5625 73.5V73.5Z" fill="white"/>
<path d="M82.6875 82.6875V85.75C82.6875 86.1561 82.8488 86.5456 83.136 86.8328C83.4232 87.1199 83.8126 87.2812 84.2188 87.2812H84.5556L85.75 86.8525V81.1562H84.2188C83.8126 81.1562 83.4232 81.3176 83.136 81.6047C82.8488 81.8919 82.6875 82.2814 82.6875 82.6875Z" fill="white"/>
<path d="M10.7188 39.8125H10.78L10.7188 40.0116V41.4662C16.3384 42.0022 36.5203 44.8656 45.7691 58.1109C47.4671 57.1988 49.3123 56.5924 51.2203 56.3194L58.1875 55.3241V49.9953C56.0894 48.7809 54.3096 47.0858 52.9945 45.0493C51.6795 43.0128 50.8667 40.6932 50.6231 38.2812H16.8438C16.6131 38.2805 16.3857 38.2277 16.1783 38.1267C15.971 38.0258 15.7891 37.8793 15.6463 37.6982C15.5035 37.5171 15.4034 37.3061 15.3536 37.0809C15.3037 36.8558 15.3054 36.6223 15.3584 36.3978L19.9522 16.4916C20.028 16.155 20.2167 15.8546 20.4869 15.6401C20.7571 15.4256 21.0925 15.31 21.4375 15.3125H49C49.4582 14.2499 50.001 13.2258 50.6231 12.25H18.0228L12.8472 31.9419C12.6284 31.564 12.3196 31.246 11.9483 31.0162C11.577 30.7865 11.1546 30.6521 10.7188 30.625C9.03437 30.625 7.65625 32.6769 7.65625 35.2188C7.65625 37.7606 9.03437 39.8125 10.7188 39.8125Z" fill="white"/>
</svg>
